<svg preserveAspectRatio="none" width="100%" height="100%" overflow="visible" style="display: block;" viewBox="0 0 80.0001 76.8427" fill="none" xmlns="http://www.w3.org/2000/svg">
<g id="Group ">
<path id="Vector" d="M66.3086 76.8427H12.3997C12.3997 76.8427 18.1196 66.9744 26.7436 68.21C35.3676 69.4457 34.5054 73.1743 41.2638 71.9575C46.0902 71.0886 44.9351 69.5238 50.6079 67.5021C58.5826 64.66 66.3086 76.8427 66.3086 76.8427Z" fill="var(--fill-0, #F4F1E3)"/>
<g id="Group">
<path id="Vector_2" d="M72.7864 17.0803C72.7357 17.0803 72.6859 17.0569 72.6535 17.013C72.6001 16.9398 72.616 16.8369 72.6893 16.7836C72.797 16.6964 73.4874 15.9811 73.8106 15.6014C73.4303 15.6541 72.727 15.7877 72.0871 15.9244C71.9978 15.9408 71.911 15.8866 71.8923 15.798C71.8732 15.7091 71.9298 15.6219 72.0185 15.603C74.2082 15.1353 74.2354 15.223 74.2843 15.3817C74.3682 15.6517 72.8989 17.0373 72.8831 17.0486C72.8539 17.0702 72.8198 17.0803 72.7864 17.0803Z" fill="var(--fill-0, #241726)"/>
<path id="Vector_3" d="M70.2535 17.1225C70.2535 17.1225 70.4126 14.5631 71.7479 15.0284C73.5976 15.673 74.4482 20.4414 70.9562 21.4764C67.4643 22.5114 66.2057 19.6394 66.2057 19.6394L68.0815 19.2091C68.0815 19.2091 66.7388 17.9955 66.8659 17.0017C66.9929 16.008 68.042 16.8837 68.042 16.8837C68.042 16.8837 66.8167 14.592 67.8353 14.5247C68.8537 14.4575 70.2535 17.1225 70.2535 17.1225Z" fill="var(--fill-0, #B1739A)"/>
<path id="Vector_4" d="M71.829 16.8228C71.472 16.8228 71.1251 16.3 71.0254 16.1367C70.9781 16.0591 71.0026 15.9581 71.0801 15.9109C71.1571 15.8634 71.2584 15.8878 71.3057 15.9655C71.4431 16.19 71.6584 16.4338 71.784 16.4847C71.7856 16.3481 71.6921 16.0113 71.5649 15.7114C71.5296 15.628 71.5687 15.5316 71.652 15.4963C71.7356 15.4609 71.8318 15.4995 71.8673 15.5831C72.001 15.8984 72.2038 16.4625 72.0593 16.698C72.014 16.772 71.9409 16.8159 71.8534 16.822C71.8453 16.8228 71.8371 16.8228 71.829 16.8228Z" fill="var(--fill-0, #241726)"/>
<path id="Vector_5" d="M68.6746 19.2006C68.6378 19.2006 68.6006 19.1881 68.5699 19.1628C68.4696 19.0794 67.5934 18.3322 67.6567 17.7183C67.6778 17.5153 67.7953 17.4398 67.8634 17.413C68.0643 17.3338 68.3542 17.473 68.5982 17.6363C68.4862 17.0073 68.5445 16.6519 68.7732 16.5778C68.8706 16.5458 69.1668 16.4508 70.2534 18.143C70.3023 18.2194 70.2801 18.3209 70.2038 18.37C70.1273 18.4191 70.0259 18.3966 69.977 18.3206C69.5829 17.7067 69.0648 17.0245 68.8685 16.9084C68.842 17.03 68.8949 17.5248 69.0131 17.9998C69.0303 18.0691 69.0006 18.1419 68.9395 18.1792C68.8784 18.2167 68.8004 18.2106 68.746 18.1634C68.4524 17.9084 68.0893 17.6914 67.9887 17.7173C67.9893 17.7203 67.9859 17.7317 67.9837 17.7523C67.9492 18.0842 68.4538 18.6387 68.7801 18.9102C68.8496 18.9681 68.8593 19.0719 68.8012 19.1414C68.7685 19.1805 68.7218 19.2006 68.6746 19.2006Z" fill="var(--fill-0, #241726)"/>
<path id="Vector_6" d="M70.2106 20.8842C69.7093 20.8842 69.3401 20.7861 69.3106 20.7781C69.2232 20.7541 69.1718 20.6639 69.1957 20.5764C69.2196 20.4892 69.3098 20.4384 69.3973 20.4612C69.4101 20.4652 70.6864 20.8012 71.6656 20.1642C72.2549 19.7806 72.6253 19.1191 72.7663 18.1978C72.7798 18.108 72.8617 18.0461 72.9535 18.0602C73.0432 18.0739 73.1048 18.1577 73.091 18.2472C72.9351 19.2664 72.5151 20.0044 71.8424 20.4409C71.3003 20.7928 70.694 20.8842 70.2106 20.8842Z" fill="var(--fill-0, #241726)"/>
</g>
<g id="Group_2">
<path id="Vector_7" d="M1.49952 38.5878C1.46671 38.5878 1.43342 38.5778 1.40467 38.5567C1.38889 38.5452 -0.0800132 37.1584 0.00342427 36.8892C0.0546743 36.7263 0.0799868 36.6442 2.26936 37.1108C2.35811 37.1297 2.41452 37.2169 2.39561 37.3058C2.37671 37.3944 2.28936 37.4495 2.20077 37.4322C1.56092 37.2956 0.857956 37.1619 0.47733 37.1092C0.800612 37.4889 1.49139 38.2048 1.60108 38.2933C1.6703 38.3494 1.68421 38.452 1.62983 38.523C1.59733 38.5653 1.54874 38.5878 1.49952 38.5878Z" fill="var(--fill-0, #241726)"/>
<path id="Vector_8" d="M4.03421 38.6303C4.03421 38.6303 3.87514 36.0709 2.53983 36.5362C0.690143 37.1808 -0.160482 41.9492 3.33155 42.9842C6.82342 44.0192 8.08202 41.1472 8.08202 41.1472L6.20639 40.7169C6.20639 40.7169 7.54905 39.5033 7.42202 38.5095C7.29499 37.5159 6.24592 38.3916 6.24592 38.3916C6.24592 38.3916 7.47124 36.0998 6.45264 36.0325C5.43405 35.9653 4.03421 38.6303 4.03421 38.6303Z" fill="var(--fill-0, #B1739A)"/>
<path id="Vector_9" d="M2.45874 38.3309C2.45077 38.3309 2.44249 38.3309 2.43452 38.3303C2.34702 38.3242 2.27389 38.2803 2.22842 38.2063C2.08389 37.9708 2.28686 37.4067 2.42046 37.0911C2.45608 37.0073 2.55249 36.9686 2.63577 37.0042C2.71921 37.0395 2.75811 37.1358 2.7228 37.2194C2.59561 37.5195 2.50217 37.8564 2.50374 37.993C2.62967 37.942 2.84499 37.6983 2.98202 37.4734C3.02952 37.3958 3.13077 37.3717 3.20764 37.4189C3.28514 37.4661 3.30967 37.567 3.26233 37.6447C3.16296 37.8078 2.81561 38.3309 2.45874 38.3309Z" fill="var(--fill-0, #241726)"/>
<path id="Vector_10" d="M5.61327 40.7084C5.56608 40.7084 5.51936 40.6883 5.48686 40.6491C5.42889 40.5795 5.43842 40.4758 5.50811 40.4178C5.83436 40.1464 6.33874 39.592 6.30436 39.26C6.30124 39.2295 6.29467 39.2192 6.29467 39.2192C6.20921 39.1945 5.83999 39.4127 5.54186 39.6711C5.48749 39.718 5.40905 39.7244 5.34842 39.6869C5.28733 39.6497 5.25764 39.5769 5.27483 39.5072C5.38655 39.0575 5.44014 38.5903 5.40358 38.4264C5.19671 38.5672 4.69499 39.2305 4.31092 39.8286C4.26171 39.9045 4.16014 39.927 4.08405 39.878C4.0078 39.8289 3.98561 39.7272 4.03452 39.6509C5.12155 37.9575 5.41686 38.0534 5.51467 38.0858C5.74342 38.1598 5.80186 38.5152 5.68967 39.1439C5.93405 38.9809 6.22436 38.8411 6.42467 38.9206C6.49264 38.9475 6.60999 39.023 6.63124 39.2259C6.69452 39.8398 5.81842 40.587 5.71811 40.6705C5.68749 40.6959 5.65014 40.7084 5.61327 40.7084Z" fill="var(--fill-0, #241726)"/>
<path id="Vector_11" d="M4.07702 42.3919C3.59374 42.3919 2.98749 42.3005 2.44546 41.9486C1.7728 41.512 1.35264 40.7741 1.19671 39.7548C1.18296 39.6653 1.24452 39.5817 1.33421 39.5678C1.42467 39.5537 1.50764 39.6156 1.52139 39.7055C1.66249 40.6269 2.0328 41.2886 2.62233 41.6719C3.60124 42.3087 4.87796 41.9723 4.89061 41.9689C4.97827 41.9458 5.06842 41.9969 5.09217 42.0841C5.11608 42.1716 5.06483 42.2617 4.97733 42.2858C4.9478 42.2938 4.57842 42.3919 4.07702 42.3919Z" fill="var(--fill-0, #241726)"/>
</g>
<g id="Group_3">
<path id="Vector_12" d="M9.50834 15.8825C9.50834 15.8825 10.5185 12.8859 10.9518 13.1954C11.3852 13.5048 11.2763 14.0251 11.2763 14.0251C11.2763 14.0251 12.5365 12.397 13.2196 12.7951C13.9026 13.1932 13.2354 14.0014 13.2354 14.0014C13.2354 14.0014 15.3502 12.5009 15.6838 13.287C16.0174 14.0731 14.1105 15.679 14.1105 15.679C14.1105 15.679 15.211 14.9979 15.4394 15.9206C15.6679 16.8432 13.8204 17.0659 13.7055 17.0653C13.5907 17.0648 14.3091 17.0328 14.0936 17.6439C13.8782 18.2548 8.0649 18.5697 9.50834 15.8825Z" fill="var(--fill-0, #51AEA5)"/>
<path id="Vector_13" d="M6.84037 19.1784C6.84037 19.1784 4.00927 20.5872 3.92084 20.062C3.8324 19.5368 4.27677 19.2453 4.27677 19.2453C4.27677 19.2453 2.23474 19.5084 2.03209 18.7442C1.82943 17.98 2.87256 17.8789 2.87256 17.8789C2.87256 17.8789 0.315524 17.4482 0.634274 16.6559C0.953024 15.8637 3.4374 16.0729 3.4374 16.0729C3.4374 16.0729 2.17724 15.7782 2.66693 14.9636C3.15662 14.1489 4.62209 15.2957 4.70302 15.3772C4.78396 15.4586 4.25256 14.9739 4.83662 14.6934C5.42084 14.4129 9.75974 18.2948 6.84037 19.1784Z" fill="var(--fill-0, #51AEA5)"/>
<path id="Vector_14" d="M10.2277 18.7054C10.2277 18.7054 12.8644 20.4509 12.4541 20.7904C12.0438 21.1298 11.569 20.8911 11.569 20.8911C11.569 20.8911 12.819 22.527 12.259 23.085C11.6988 23.6429 11.0891 22.7906 11.0891 22.7906C11.0891 22.7906 11.9963 25.2196 11.151 25.3404C10.3057 25.4611 9.24302 23.2057 9.24302 23.2057C9.24302 23.2057 9.61881 24.4442 8.66834 24.4281C7.71787 24.412 7.97709 22.5693 8.00709 22.4584C8.03709 22.3476 7.88349 23.0501 7.34818 22.685C6.81287 22.3198 8.00115 16.6206 10.2277 18.7054Z" fill="var(--fill-0, #51AEA5)"/>
<path id="Vector_15" d="M10.9412 16.8375C10.6344 16.7732 10.3299 16.7886 10.0474 16.8672C10.1719 15.8962 9.53193 14.9773 8.5574 14.7734C7.53318 14.559 6.52896 15.2157 6.31474 16.24C6.18599 16.8556 6.37334 17.4628 6.76459 17.8967C6.08209 18.0673 5.52115 18.6107 5.3674 19.3456C5.15302 20.3698 5.80974 21.374 6.83396 21.5882C7.85834 21.8026 8.8624 21.1459 9.07662 20.1217C9.09115 20.0525 9.10084 19.9834 9.10756 19.9147C9.37084 20.2264 9.73474 20.4567 10.1649 20.5468C11.1893 20.7612 12.1933 20.1045 12.4076 19.0803C12.6221 18.0559 11.9655 17.0518 10.9412 16.8375ZM8.67521 18.4529C8.67271 18.4723 8.66943 18.4917 8.66771 18.5111C8.65443 18.4954 8.64068 18.4801 8.62709 18.465C8.64302 18.4609 8.65927 18.4575 8.67521 18.4529Z" fill="var(--fill-0, #D45A41)"/>
<path id="Vector_16" d="M6.24209 17.9479C6.21021 17.9479 6.17787 17.9387 6.14959 17.9193C5.01162 17.142 2.87771 17.2378 2.85615 17.2375C2.76287 17.2475 2.68834 17.172 2.68412 17.0817C2.67974 16.9912 2.74959 16.9142 2.84021 16.9098C2.93193 16.905 5.10521 16.8084 6.33506 17.6481C6.4099 17.6993 6.42912 17.8014 6.37802 17.8765C6.34599 17.9229 6.29443 17.9479 6.24209 17.9479Z" fill="var(--fill-0, #241726)"/>
<path id="Vector_17" d="M10.941 17.0017C10.864 17.0017 10.7952 16.9472 10.7801 16.8689C10.7627 16.7797 10.8208 16.6934 10.9097 16.6761C11.6086 16.5401 12.8188 15.01 13.2263 14.4317C13.2785 14.3579 13.3805 14.3397 13.4552 14.3918C13.5293 14.444 13.5471 14.5467 13.4949 14.6207C13.3372 14.8447 11.9272 16.8126 10.9727 16.9986C10.9619 17.0007 10.9515 17.0017 10.941 17.0017Z" fill="var(--fill-0, #241726)"/>
<path id="Vector_18" d="M10.003 23.4145C9.91349 23.4145 9.84021 23.3426 9.8388 23.2528C9.82927 22.6809 9.69131 21.13 9.17334 20.8239C9.09521 20.7776 9.06943 20.677 9.11537 20.599C9.16162 20.5207 9.26209 20.4954 9.34037 20.5409C10.1085 20.9948 10.1635 23.0182 10.1672 23.2475C10.1686 23.3379 10.0963 23.4126 10.0057 23.4142C10.0047 23.4145 10.0038 23.4145 10.003 23.4145Z" fill="var(--fill-0, #241726)"/>
<path id="Vector_19" d="M10.081 16.8622C9.99599 16.8307 9.90177 16.874 9.8699 16.9593C9.86615 16.9693 9.48068 17.9843 8.66709 18.1428C8.63881 18.1484 8.61537 18.1625 8.5949 18.1798C8.55381 18.1512 8.51365 18.122 8.46771 18.0961C7.82677 17.7336 7.28381 17.6131 6.85365 17.7401C6.48115 17.8498 6.33896 18.1036 6.32381 18.132C6.28209 18.2115 6.31256 18.3087 6.39146 18.3514C6.47006 18.3947 6.56943 18.3648 6.61365 18.2865C6.61756 18.2798 6.70928 18.1211 6.95724 18.0517C7.19162 17.9875 7.61537 17.9907 8.30599 18.382C9.17943 18.8759 8.92787 20.0359 8.91678 20.085C8.89678 20.1731 8.95193 20.2614 9.04021 20.2815C9.05256 20.284 9.0649 20.2857 9.07693 20.2857C9.15177 20.2857 9.21927 20.2345 9.23677 20.1584C9.24818 20.1087 9.46552 19.1078 8.87318 18.4278C9.7674 18.1578 10.1611 17.119 10.1782 17.0726C10.2094 16.9878 10.166 16.8936 10.081 16.8622Z" fill="var(--fill-0, #241726)"/>
<path id="Vector_20" d="M9.40537 16.3856C9.33631 16.3856 9.27193 16.3417 9.24927 16.2723C9.03099 15.6065 8.26365 15.6626 8.25646 15.6623C8.16443 15.6709 8.08677 15.6026 8.07927 15.5122C8.07193 15.4217 8.13912 15.3425 8.22959 15.3351C8.58599 15.3025 9.32287 15.4426 9.56146 16.1703C9.58974 16.2562 9.54271 16.3489 9.45662 16.3775C9.43959 16.3829 9.42224 16.3856 9.40537 16.3856Z" fill="var(--fill-0, #FBFCFF)"/>
<path id="Vector_21" d="M11.8852 18.8115C11.8133 18.8115 11.7472 18.7637 11.7271 18.6912C11.5907 18.1986 10.8733 17.8972 10.8661 17.8939C10.7824 17.8595 10.7426 17.7634 10.7769 17.6797C10.8115 17.5959 10.9072 17.5562 10.991 17.5901C11.0265 17.6048 11.864 17.9551 12.0437 18.6032C12.0679 18.6907 12.0166 18.7812 11.9291 18.8053C11.9146 18.8095 11.8997 18.8115 11.8852 18.8115Z" fill="var(--fill-0, #FBFCFF)"/>
<path id="Vector_22" d="M8.42552 19.7734C8.33568 19.7734 8.2624 19.7012 8.26131 19.6111C8.26006 19.502 8.22084 19.4126 8.14193 19.3378C7.89052 19.0998 7.30881 19.0675 7.10474 19.0782C7.01771 19.0815 6.93771 19.0118 6.93365 18.9211C6.92974 18.8306 7.00006 18.754 7.09052 18.7498C7.12646 18.7498 7.96271 18.7162 8.3674 19.0987C8.51256 19.2361 8.58724 19.407 8.5899 19.607C8.59099 19.6975 8.51834 19.7718 8.42771 19.7731C8.42693 19.7734 8.42615 19.7734 8.42552 19.7734Z" fill="var(--fill-0, #FBFCFF)"/>
</g>
<g id="Group_4">
<path id="Vector_23" d="M70.4016 54.3547C70.4016 54.3547 67.6466 52.8026 68.0314 52.4346C68.4162 52.0666 68.907 52.2708 68.907 52.2708C68.907 52.2708 67.543 50.7286 68.0617 50.1319C68.5803 49.5354 69.2497 50.3418 69.2497 50.3418C69.2497 50.3418 68.1708 47.984 69.0053 47.803C69.8398 47.6221 71.0612 49.7955 71.0612 49.7955C71.0612 49.7955 70.5978 48.5872 71.5469 48.5352C72.4959 48.4832 72.3695 50.3397 72.3475 50.4524C72.3255 50.5651 72.4284 49.8533 72.9884 50.1791C73.5486 50.5051 72.7717 56.2747 70.4016 54.3547Z" fill="var(--fill-0, #51AEA5)"/>
<path id="Vector_24" d="M73.1409 57.5916C73.1409 57.5916 73.9959 60.636 73.4636 60.6247C72.9312 60.6135 72.7278 60.1224 72.7278 60.1224C72.7278 60.1224 72.6048 62.1776 71.8162 62.234C71.0276 62.2902 71.1231 61.2466 71.1231 61.2466C71.1231 61.2466 70.2223 63.6782 69.5036 63.2169C68.7848 62.7558 69.4545 60.3543 69.4545 60.3543C69.4545 60.3543 68.9297 61.5372 68.2208 60.904C67.5119 60.2707 68.9123 59.0452 69.0075 58.981C69.1026 58.9166 68.5272 59.3482 68.3608 58.7219C68.1942 58.0957 72.8183 54.5583 73.1409 57.5916Z" fill="var(--fill-0, #51AEA5)"/>
<path id="Vector_25" d="M73.3092 54.1755C73.3092 54.1755 75.5166 51.9113 75.7734 52.3777C76.0303 52.8441 75.7069 53.2661 75.7069 53.2661C75.7069 53.2661 77.5477 52.3438 77.9911 52.9982C78.4345 53.6527 77.4833 54.0926 77.4833 54.0926C77.4833 54.0926 80.0391 53.6551 79.9997 54.5082C79.9603 55.3613 77.5461 55.9836 77.5461 55.9836C77.5461 55.9836 78.8328 55.8458 78.6395 56.7765C78.4461 57.7071 76.6844 57.1083 76.5811 57.0582C76.4778 57.008 77.1394 57.2902 76.6806 57.7477C76.222 58.2054 70.845 55.9733 73.3092 54.1755Z" fill="var(--fill-0, #51AEA5)"/>
<path id="Vector_26" d="M74.4855 55.5707C74.4201 55.5435 74.3542 55.521 74.2878 55.5016C74.6431 55.3013 74.9375 54.9868 75.1064 54.5808C75.5083 53.6146 75.0508 52.5055 74.0847 52.1036C73.1184 51.7018 72.0094 52.1593 71.6075 53.1254C71.4872 53.4147 71.4453 53.7168 71.4697 54.009C70.5391 53.7052 69.5167 54.1622 69.1344 55.0816C68.7325 56.0479 69.19 57.1569 70.1561 57.5588C70.7369 57.8004 71.3683 57.7296 71.8676 57.4263C71.9078 58.1286 72.3369 58.7813 73.03 59.0696C73.9962 59.4715 75.1053 59.014 75.5072 58.0477C75.9092 57.0816 75.4517 55.9726 74.4855 55.5707ZM72.7711 55.6535C72.7897 55.6596 72.8081 55.6663 72.8267 55.6718C72.8089 55.6818 72.7912 55.6924 72.7737 55.7032C72.773 55.6866 72.7725 55.6699 72.7711 55.6535Z" fill="var(--fill-0, #D45A41)"/>
<path id="Vector_27" d="M70.1641 61.229C70.1566 61.229 70.1487 61.2283 70.1411 61.2274C70.0512 61.2149 69.9887 61.1318 70.0012 61.0421C70.0139 60.951 70.3245 58.798 71.3797 57.7466C71.4441 57.6827 71.548 57.6827 71.6119 57.7472C71.6761 57.8113 71.6758 57.9154 71.6116 57.9794C70.635 58.9522 70.3295 61.0665 70.3264 61.0876C70.315 61.1696 70.2447 61.229 70.1641 61.229Z" fill="var(--fill-0, #241726)"/>
<path id="Vector_28" d="M71.6073 53.2897C71.5169 53.2897 71.4434 53.2166 71.4431 53.1262C71.44 52.4138 70.163 50.9391 69.6709 50.4311C69.608 50.366 69.6095 50.2621 69.6748 50.199C69.7403 50.1361 69.8442 50.1374 69.907 50.2029C70.0973 50.3994 71.7673 52.1522 71.7716 53.1251C71.7719 53.2158 71.6987 53.2896 71.608 53.2899L71.6073 53.2897Z" fill="var(--fill-0, #241726)"/>
<path id="Vector_29" d="M75.07 55.6626C75.0314 55.6626 74.9926 55.6491 74.9616 55.6215C74.8934 55.5618 74.8869 55.4579 74.9467 55.3899C75.5362 54.7202 77.5347 55.0444 77.7603 55.0836C77.8497 55.099 77.9094 55.184 77.894 55.2732C77.8786 55.3627 77.7942 55.4252 77.7042 55.4069C77.1409 55.3097 75.5906 55.1552 75.1934 55.6068C75.1608 55.6436 75.1156 55.6626 75.07 55.6626Z" fill="var(--fill-0, #241726)"/>
<path id="Vector_30" d="M74.5516 55.4204C74.5048 55.3997 73.5619 54.9991 72.7834 55.4543C72.6856 54.5255 71.7384 53.9447 71.6961 53.9191C71.6181 53.8729 71.5176 53.8969 71.4709 53.9752C71.4242 54.0529 71.4492 54.1538 71.5269 54.2007C71.5362 54.2062 72.4614 54.7744 72.465 55.6032C72.4651 55.6321 72.4747 55.6577 72.4878 55.6813C72.452 55.7165 72.4158 55.7504 72.3816 55.7908C71.9053 56.353 71.6862 56.864 71.7301 57.3097C71.7683 57.6962 71.9911 57.8832 72.0162 57.9033C72.0462 57.9271 72.0819 57.9387 72.1172 57.9387C72.1648 57.9387 72.212 57.9177 72.2445 57.878C72.3014 57.8085 72.2911 57.7055 72.2223 57.6477C72.2164 57.6426 72.0775 57.5227 72.0561 57.266C72.0358 57.0241 72.1192 56.6085 72.632 56.003C73.2806 55.2368 74.3736 55.7008 74.4195 55.7212C74.5036 55.7577 74.5997 55.7193 74.6356 55.6365C74.6722 55.5535 74.6345 55.4569 74.5516 55.4204Z" fill="var(--fill-0, #241726)"/>
<path id="Vector_31" d="M69.7884 55.6901C69.7827 55.6901 69.7767 55.6897 69.7709 55.6891C69.6806 55.6794 69.6155 55.5986 69.625 55.5085C69.6628 55.1529 69.935 54.4546 70.6939 54.3561C70.7836 54.3433 70.8662 54.4079 70.8778 54.4979C70.8895 54.588 70.8261 54.6701 70.7362 54.6819C70.0416 54.7721 69.9522 55.5354 69.9514 55.543C69.9425 55.6276 69.8712 55.6901 69.7884 55.6901Z" fill="var(--fill-0, #FBFCFF)"/>
<path id="Vector_32" d="M72.4936 53.471C72.4628 53.471 72.4317 53.4624 72.4039 53.4441C72.3281 53.3947 72.3067 53.293 72.3561 53.2174C72.377 53.1851 72.8776 52.4277 73.5481 52.3726C73.6395 52.3655 73.7178 52.4322 73.7253 52.5227C73.7327 52.6132 73.6655 52.6924 73.575 52.6997C73.0655 52.7418 72.6355 53.3902 72.6311 53.3966C72.5998 53.4447 72.5472 53.471 72.4936 53.471Z" fill="var(--fill-0, #FBFCFF)"/>
<path id="Vector_33" d="M72.9297 57.4535C72.9219 57.4535 72.9137 57.4529 72.9058 57.4516C72.8161 57.4388 72.7539 57.3554 72.767 57.2655C72.772 57.2305 72.897 56.4021 73.3483 56.0763C73.51 55.9599 73.6919 55.9179 73.8887 55.9532C73.9781 55.969 74.0375 56.0543 74.0217 56.1433C74.0058 56.2329 73.922 56.2908 73.8314 56.2765C73.7233 56.2572 73.6287 56.279 73.5409 56.3426C73.2598 56.5449 73.1216 57.1116 73.0919 57.313C73.08 57.3947 73.0098 57.4535 72.9297 57.4535Z" fill="var(--fill-0, #FBFCFF)"/>
</g>
<g id="Group_5">
<path id="Vector_34" d="M26.8511 70.285C26.8058 70.285 26.7607 70.2664 26.7283 70.2299C26.708 70.2071 26.2318 69.6917 25.4847 70.0458C25.403 70.0839 25.305 70.0497 25.2661 69.9675C25.2272 69.8858 25.2621 69.7877 25.3443 69.7488C26.1254 69.3792 26.7521 69.7594 26.9746 70.0124C27.0346 70.0806 27.0279 70.1842 26.9597 70.2442C26.9282 70.2716 26.8896 70.285 26.8511 70.285Z" fill="var(--fill-0, #241726)"/>
<path id="Vector_35" d="M25.5557 71.2524C25.5104 71.2524 25.4652 71.2338 25.4329 71.1972C25.4125 71.1741 24.9364 70.6585 24.1893 71.0132C24.1077 71.0513 24.0093 71.0171 23.9707 70.9349C23.9318 70.8531 23.9666 70.755 24.0488 70.7161C24.8297 70.3466 25.4566 70.7267 25.6789 70.9797C25.7389 71.048 25.7322 71.1516 25.6641 71.2116C25.6329 71.2389 25.5941 71.2524 25.5557 71.2524Z" fill="var(--fill-0, #241726)"/>
<path id="Vector_36" d="M23.3785 71.0671C23.3332 71.0671 23.288 71.0485 23.2557 71.0119C23.2355 70.9891 22.7605 70.4727 22.0121 70.8275C21.9304 70.866 21.8324 70.8311 21.7933 70.7492C21.7546 70.6675 21.7896 70.5694 21.8716 70.5305C22.6524 70.1603 23.2796 70.5414 23.5019 70.7944C23.5619 70.8627 23.5552 70.9663 23.4871 71.0263C23.4557 71.0536 23.4169 71.0671 23.3785 71.0671Z" fill="var(--fill-0, #241726)"/>
<path id="Vector_37" d="M21.1852 70.1841C21.1371 70.1841 21.0894 70.1633 21.0571 70.1228C21.0004 70.0522 21.0113 69.9486 21.0821 69.8919C21.7647 69.3428 22.4516 69.5708 22.7191 69.7685C22.7922 69.8224 22.8079 69.925 22.7539 69.9981C22.7005 70.0706 22.5982 70.0867 22.5249 70.0335C22.4999 70.0152 21.9385 69.6242 21.288 70.148C21.2577 70.1722 21.2213 70.1841 21.1852 70.1841Z" fill="var(--fill-0, #241726)"/>
<path id="Vector_38" d="M23.5569 70.0038C23.5063 70.0038 23.4563 69.9803 23.4241 69.9364C23.3707 69.8633 23.3866 69.7603 23.4599 69.7071C24.1649 69.1913 24.8422 69.4511 25.1021 69.6605C25.1727 69.7175 25.1836 69.8208 25.1268 69.8914C25.0704 69.9619 24.9671 69.9728 24.8966 69.9167C24.8732 69.8985 24.3264 69.4805 23.6535 69.9719C23.6244 69.9936 23.5905 70.0038 23.5569 70.0038Z" fill="var(--fill-0, #241726)"/>
<path id="Vector_39" d="M20.6983 71.9361C20.6477 71.9361 20.5979 71.9127 20.5655 71.8688C20.5121 71.7956 20.528 71.6927 20.6013 71.6394C21.3064 71.1236 21.9836 71.3835 22.2435 71.5928C22.3141 71.6499 22.325 71.7531 22.2682 71.8238C22.2118 71.8944 22.1088 71.9052 22.038 71.8491C22.0149 71.8314 21.4679 71.4125 20.7949 71.9042C20.7658 71.926 20.7319 71.9361 20.6983 71.9361Z" fill="var(--fill-0, #241726)"/>
<path id="Vector_40" d="M19.3049 71.1799C19.2629 71.1799 19.2207 71.1638 19.1886 71.1317C19.1246 71.0675 19.1246 70.9633 19.1889 70.8996C19.8127 70.2764 20.5168 70.4291 20.8011 70.5964C20.8794 70.6422 20.9054 70.743 20.8593 70.8213C20.8136 70.8989 20.7132 70.9255 20.635 70.8797C20.6074 70.8636 20.0157 70.5388 19.4208 71.1317C19.3889 71.1639 19.3469 71.1799 19.3049 71.1799Z" fill="var(--fill-0, #241726)"/>
</g>
<g id="Group_6">
<path id="Vector_41" d="M57.4031 69.6854C57.3577 69.6854 57.3126 69.6668 57.2803 69.6303C57.2601 69.6074 56.7842 69.0915 56.0367 69.4462C55.9546 69.4843 55.8568 69.4501 55.8181 69.3679C55.7792 69.2862 55.814 69.1879 55.8962 69.1492C56.6768 68.7793 57.3042 69.1598 57.5265 69.4128C57.5865 69.481 57.5798 69.5846 57.5117 69.6446C57.4802 69.672 57.4417 69.6854 57.4031 69.6854Z" fill="var(--fill-0, #241726)"/>
<path id="Vector_42" d="M56.1078 70.6528C56.0624 70.6528 56.0173 70.6342 55.9849 70.5976C55.9646 70.5748 55.4884 70.0588 54.7413 70.4135C54.6596 70.4517 54.5617 70.4174 54.5227 70.3353C54.4838 70.2535 54.5187 70.1553 54.6009 70.1165C55.3815 69.747 56.0087 70.1271 56.2312 70.3801C56.2912 70.4484 56.2845 70.552 56.2162 70.612C56.1848 70.6392 56.1462 70.6528 56.1078 70.6528Z" fill="var(--fill-0, #241726)"/>
<path id="Vector_43" d="M53.9304 70.4673C53.8851 70.4673 53.8399 70.4487 53.8076 70.4121C53.7873 70.3893 53.3117 69.8734 52.5643 70.2281C52.4821 70.2662 52.3846 70.232 52.3456 70.1498C52.3067 70.0681 52.3415 69.9698 52.4235 69.931C53.2045 69.5615 53.8313 69.9417 54.0538 70.1946C54.1138 70.2629 54.1071 70.3665 54.0388 70.4265C54.0076 70.4538 53.969 70.4673 53.9304 70.4673Z" fill="var(--fill-0, #241726)"/>
<path id="Vector_44" d="M51.7371 69.5843C51.689 69.5843 51.6413 69.5635 51.609 69.5231C51.5523 69.4524 51.5634 69.3488 51.634 69.2921C52.3162 68.7434 53.0037 68.971 53.2712 69.1687C53.3443 69.2226 53.3598 69.3253 53.306 69.3984C53.2528 69.4712 53.1499 69.4868 53.0771 69.4337C53.0518 69.4157 52.4907 69.0242 51.8399 69.5482C51.8096 69.5724 51.7732 69.5843 51.7371 69.5843Z" fill="var(--fill-0, #241726)"/>
<path id="Vector_45" d="M54.109 69.4042C54.0584 69.4042 54.0085 69.3807 53.9762 69.3368C53.9228 69.2637 53.9387 69.1607 54.012 69.1074C54.7171 68.5917 55.3942 68.8515 55.6542 69.0609C55.7248 69.1179 55.7357 69.2212 55.6788 69.2918C55.6223 69.3624 55.5193 69.3732 55.4487 69.3171C55.4257 69.2995 54.8788 68.8806 54.2056 69.3723C54.1765 69.3939 54.1424 69.4042 54.109 69.4042Z" fill="var(--fill-0, #241726)"/>
<path id="Vector_46" d="M51.2506 71.3365C51.1999 71.3365 51.1501 71.3131 51.1177 71.2692C51.0643 71.196 51.0803 71.0931 51.1535 71.0398C51.8585 70.524 52.5362 70.7838 52.7956 70.9932C52.8663 71.0503 52.8773 71.1535 52.8204 71.2242C52.7638 71.2945 52.6609 71.3059 52.5902 71.2495C52.5671 71.2312 52.0207 70.8129 51.3471 71.3046C51.3181 71.3262 51.284 71.3365 51.2506 71.3365Z" fill="var(--fill-0, #241726)"/>
<path id="Vector_47" d="M49.857 70.5803C49.8149 70.5803 49.7727 70.5642 49.7407 70.5321C49.6767 70.4681 49.6767 70.3637 49.741 70.2999C50.3651 69.6762 51.0687 69.8295 51.3532 69.9968C51.4313 70.0426 51.4573 70.1434 51.4113 70.2217C51.3654 70.2993 51.2648 70.3253 51.1874 70.2804C51.1623 70.266 50.5696 69.9373 49.9729 70.5321C49.9409 70.5642 49.899 70.5803 49.857 70.5803Z" fill="var(--fill-0, #241726)"/>
</g>
<path id="Vector_48" d="M5.67026 65.5891C5.54135 65.5891 5.41198 65.5794 5.28526 65.5605C5.19557 65.5474 5.1337 65.4636 5.14698 65.3741C5.16042 65.2843 5.24401 65.223 5.3337 65.2358C5.53464 65.2654 5.74214 65.2676 5.94526 65.2444C6.03557 65.2351 6.11682 65.2986 6.12714 65.3888C6.1376 65.479 6.07292 65.5604 5.98276 65.571C5.87901 65.583 5.77479 65.5891 5.67026 65.5891ZM6.60198 65.4222C6.53432 65.4222 6.47073 65.3802 6.44714 65.3126C6.41698 65.2269 6.46182 65.1333 6.54745 65.1032C6.73604 65.0368 6.92698 64.9483 7.11526 64.8402C7.19401 64.7954 7.29432 64.8219 7.33948 64.9008C7.38464 64.9794 7.35745 65.0797 7.27885 65.1251C7.07323 65.243 6.86385 65.3399 6.65651 65.413C6.63854 65.4194 6.6201 65.4222 6.60198 65.4222ZM4.68026 65.3816C4.65854 65.3816 4.6362 65.3771 4.61464 65.3679C4.40901 65.278 4.20776 65.1607 4.01667 65.0186C3.94385 64.9644 3.92885 64.8618 3.98276 64.789C4.03698 64.7158 4.13979 64.7011 4.2126 64.7549C4.3837 64.8819 4.56307 64.9871 4.7462 65.0669C4.82932 65.1032 4.86729 65.2001 4.83089 65.283C4.80401 65.3447 4.7437 65.3816 4.68026 65.3816ZM7.73917 64.7771C7.69073 64.7771 7.64292 64.756 7.61042 64.7152C7.55401 64.644 7.56589 64.5407 7.63682 64.4843C7.79901 64.3554 7.95714 64.2116 8.10682 64.0571C8.16995 63.9916 8.27385 63.9904 8.33901 64.0532C8.40432 64.1163 8.40589 64.2202 8.34292 64.2854C8.18323 64.4502 8.01448 64.6035 7.8412 64.7415C7.81104 64.7655 7.77495 64.7771 7.73917 64.7771ZM3.62651 64.6129C3.58276 64.6129 3.53917 64.5955 3.50667 64.5608C3.35917 64.4036 3.21495 64.2269 3.07823 64.0358C3.02542 63.9621 3.04245 63.8594 3.1162 63.8065C3.19026 63.7538 3.2926 63.7708 3.34542 63.8446C3.4737 64.0243 3.60854 64.1897 3.7462 64.3363C3.80839 64.4024 3.8051 64.5063 3.73901 64.5682C3.70729 64.598 3.66682 64.6129 3.62651 64.6129ZM8.65214 63.8363C8.6176 63.8363 8.58292 63.8254 8.55339 63.8029C8.48089 63.7483 8.46667 63.6454 8.52135 63.5729C8.6512 63.401 8.76932 63.2226 8.87198 63.0427C8.91667 62.9641 9.01698 62.9369 9.09604 62.9815C9.17479 63.0266 9.20214 63.1268 9.15714 63.2057C9.04745 63.3977 8.92167 63.588 8.78339 63.7711C8.75104 63.814 8.70182 63.8363 8.65214 63.8363ZM2.85995 63.5505C2.80245 63.5505 2.74635 63.5201 2.71635 63.4661C2.60354 63.2641 2.50792 63.0554 2.43167 62.8461C2.40057 62.7608 2.44448 62.6669 2.52979 62.6358C2.61495 62.6047 2.70932 62.6486 2.74026 62.734C2.81042 62.9268 2.89901 63.1194 3.00307 63.3065C3.04729 63.3857 3.01885 63.4857 2.93964 63.5297C2.91448 63.5438 2.88698 63.5505 2.85995 63.5505ZM2.41604 62.3208C2.3376 62.3208 2.26839 62.2647 2.25432 62.1849C2.21745 61.9722 2.1987 61.7561 2.1987 61.5415L2.36323 61.5027L2.52729 61.5232C2.52714 61.7371 2.54432 61.9347 2.57792 62.1283C2.59354 62.2179 2.5337 62.3029 2.44417 62.3182C2.43479 62.3202 2.42526 62.3208 2.41604 62.3208ZM2.42948 61.0146C2.41917 61.0146 2.40901 61.0136 2.39854 61.0118C2.30932 60.9947 2.25104 60.9085 2.26807 60.8196C2.31026 60.5996 2.37214 60.3786 2.45245 60.1618C2.48401 60.0768 2.57776 60.0332 2.66354 60.0649C2.74854 60.0963 2.79198 60.191 2.76042 60.276C2.68651 60.4755 2.62932 60.6791 2.59073 60.8811C2.57557 60.9597 2.50682 61.0146 2.42948 61.0146ZM2.88042 59.7869C2.85339 59.7869 2.8262 59.7802 2.80104 59.7665C2.72167 59.7226 2.69292 59.6224 2.73698 59.5432C2.84526 59.3479 2.96948 59.1565 3.10635 58.974C3.16057 58.9015 3.26385 58.8865 3.3362 58.941C3.40885 58.9955 3.42354 59.0985 3.36901 59.171C3.24135 59.3416 3.12526 59.5202 3.02448 59.7024C2.99432 59.7565 2.93807 59.7869 2.88042 59.7869ZM6.14026 59.453C6.13698 59.453 6.1337 59.453 6.13026 59.4527C5.91417 59.4399 5.68604 59.4049 5.4526 59.3488C5.36464 59.3277 5.31026 59.2388 5.33135 59.1505C5.35245 59.0627 5.43995 59.0088 5.52964 59.0293C5.74417 59.081 5.95292 59.113 6.14995 59.1249C6.24042 59.1304 6.30948 59.208 6.30401 59.2985C6.29885 59.3857 6.22651 59.453 6.14026 59.453ZM6.79307 59.4083C6.71839 59.4083 6.65073 59.3571 6.63323 59.281C6.61292 59.1929 6.66807 59.1046 6.75635 59.0841C6.9712 59.0344 7.13182 58.9455 7.22057 58.8269C7.27464 58.7541 7.37776 58.7391 7.45042 58.7935C7.52307 58.8477 7.53792 58.9507 7.4837 59.0232C7.34589 59.2079 7.12604 59.3358 6.83026 59.4043C6.81776 59.4071 6.80526 59.4083 6.79307 59.4083ZM4.86557 59.1532C4.84526 59.1532 4.82432 59.1493 4.80432 59.1413C4.59307 59.0563 4.38745 58.9572 4.19292 58.8463C4.11401 58.8015 4.08667 58.701 4.13151 58.6221C4.1762 58.5432 4.27651 58.516 4.35557 58.5608C4.53745 58.6644 4.72948 58.7574 4.92698 58.8366C5.0112 58.8702 5.05182 58.9661 5.01807 59.0502C4.99214 59.1143 4.93042 59.1532 4.86557 59.1532ZM3.66432 58.7385C3.62307 58.7385 3.58182 58.723 3.54979 58.6919C3.48479 58.6288 3.48339 58.5249 3.54651 58.4597C3.55667 58.4494 3.56667 58.4393 3.57682 58.429C3.41417 58.2991 3.26182 58.1583 3.12276 58.0101C3.06073 57.944 3.06401 57.8401 3.1301 57.7782C3.19667 57.716 3.30026 57.7191 3.36229 57.7855C3.50073 57.933 3.65385 58.0726 3.8176 58.2005C3.89354 58.1332 3.97135 58.068 4.05073 58.0058C4.12214 57.9494 4.22542 57.9622 4.28135 58.0335C4.33745 58.1047 4.3251 58.208 4.2537 58.2638C4.08807 58.394 3.92932 58.5371 3.78167 58.6888C3.74979 58.7218 3.70714 58.7385 3.66432 58.7385ZM7.43526 58.4622C7.36323 58.4622 7.29714 58.4144 7.27714 58.3416C7.25526 58.263 7.22182 58.1783 7.17729 58.0902C7.1287 57.994 7.07073 57.908 7.00464 57.8349C6.94385 57.7676 6.94917 57.664 7.01651 57.603C7.08339 57.5427 7.1876 57.5476 7.24839 57.6149C7.33401 57.7099 7.40885 57.8199 7.47042 57.9421C7.52479 58.0499 7.5662 58.1547 7.5937 58.2544C7.61792 58.3416 7.56667 58.4321 7.47917 58.4565C7.46464 58.4604 7.44995 58.4622 7.43526 58.4622ZM4.69573 57.9302C4.63901 57.9302 4.58385 57.9007 4.55354 57.8482C4.50807 57.7699 4.53495 57.6693 4.61339 57.624C4.81964 57.5046 5.02792 57.4061 5.23292 57.3315C5.31823 57.301 5.41214 57.3443 5.44354 57.4293C5.47464 57.5146 5.43073 57.6088 5.34557 57.6399C5.15854 57.7082 4.96776 57.7983 4.77807 57.908C4.75182 57.9232 4.72354 57.9302 4.69573 57.9302ZM2.83667 57.5472C2.78323 57.5472 2.73089 57.5213 2.69917 57.4732C2.57292 57.281 2.46479 57.0771 2.37729 56.8672C2.34229 56.7835 2.38198 56.6874 2.46573 56.6524C2.54932 56.6186 2.64573 56.6569 2.68042 56.7408C2.7601 56.9319 2.8587 57.1177 2.9737 57.2929C3.02339 57.3685 3.00245 57.4705 2.92651 57.5202C2.89885 57.5386 2.8676 57.5472 2.83667 57.5472ZM6.57682 57.546C6.56135 57.546 6.54589 57.5438 6.53026 57.5393C6.35792 57.4883 6.15698 57.4729 5.94417 57.496C5.85229 57.5049 5.77292 57.4408 5.76307 57.3504C5.75323 57.2602 5.81839 57.1794 5.90854 57.1694C6.16635 57.1411 6.40948 57.1611 6.62323 57.2243C6.71026 57.2499 6.75979 57.3413 6.73417 57.4282C6.71307 57.4997 6.6476 57.546 6.57682 57.546ZM2.3351 56.3426C2.25901 56.3426 2.19073 56.2893 2.17464 56.2121C2.12854 55.9921 2.10182 55.7633 2.0951 55.5321C2.0926 55.4413 2.16385 55.3657 2.25448 55.363C2.3451 55.3597 2.42073 55.4319 2.42354 55.5224C2.42964 55.7344 2.45401 55.9438 2.49604 56.1446C2.51464 56.2335 2.45776 56.3204 2.36901 56.339C2.3576 56.3416 2.3462 56.3426 2.3351 56.3426ZM2.26885 55.0347C2.26573 55.0347 2.26276 55.0347 2.25964 55.0344C2.16901 55.0296 2.09964 54.9521 2.10479 54.8616C2.11745 54.6316 2.14073 54.4065 2.17385 54.1926C2.18792 54.1033 2.27182 54.0421 2.36135 54.0557C2.45104 54.0697 2.51245 54.1535 2.49854 54.2433C2.46698 54.4463 2.44479 54.6607 2.4326 54.8796C2.42776 54.9671 2.35542 55.0347 2.26885 55.0347ZM2.47479 53.7413C2.45995 53.7413 2.44479 53.7394 2.42995 53.7352C2.34276 53.7105 2.29198 53.6197 2.31667 53.5326C2.38042 53.3068 2.4587 53.0916 2.54932 52.8927C2.58698 52.8099 2.68479 52.7741 2.76682 52.8113C2.84948 52.8488 2.88589 52.9463 2.84823 53.0288C2.76448 53.2129 2.69182 53.4124 2.6326 53.6218C2.61229 53.6941 2.54635 53.7413 2.47479 53.7413ZM4.4026 52.654C4.39651 52.654 4.39042 52.6536 4.38417 52.653C4.15276 52.6271 3.92526 52.5735 3.70792 52.4933C3.62276 52.4622 3.57932 52.3676 3.61057 52.2826C3.64214 52.1976 3.73714 52.154 3.82151 52.1854C4.01401 52.2563 4.21557 52.3036 4.42073 52.3265C4.51089 52.3368 4.57573 52.4179 4.56573 52.508C4.5562 52.5918 4.4851 52.654 4.4026 52.654ZM5.05745 52.6433C4.9776 52.6433 4.9076 52.5849 4.89526 52.5038C4.88167 52.414 4.94323 52.3302 5.03292 52.3168C5.25401 52.2832 5.44979 52.2165 5.58432 52.1282C5.65995 52.0788 5.76198 52.1002 5.81151 52.176C5.8612 52.2516 5.83995 52.3536 5.76385 52.4033C5.58839 52.5179 5.3526 52.6002 5.08214 52.6413C5.07401 52.6427 5.06573 52.6433 5.05745 52.6433ZM3.02323 52.5552C2.99057 52.5552 2.95729 52.5455 2.92854 52.5251C2.85448 52.4727 2.83682 52.3701 2.88932 52.296C2.93089 52.2372 2.97417 52.1802 3.0187 52.1254C2.85604 52.0071 2.70432 51.8707 2.56698 51.719C2.50604 51.6516 2.51135 51.5477 2.57854 51.4868C2.64573 51.4265 2.74964 51.4313 2.81042 51.4983C2.94073 51.6424 3.08542 51.771 3.24089 51.8804C3.27651 51.8454 3.31276 51.8115 3.34979 51.7786C3.41729 51.718 3.52104 51.7244 3.58151 51.7924C3.64167 51.8604 3.63542 51.9643 3.5676 52.0243C3.4187 52.1565 3.28057 52.3116 3.1576 52.4858C3.12557 52.5311 3.07479 52.5552 3.02323 52.5552ZM5.83245 51.8846C5.78401 51.8846 5.7362 51.8633 5.7037 51.8227C5.69229 51.8083 5.67901 51.7938 5.66401 51.7794C5.55229 51.6729 5.40307 51.5915 5.23401 51.5443C5.14682 51.5199 5.09557 51.4294 5.11995 51.3422C5.14432 51.2547 5.23479 51.2033 5.32214 51.228C5.5426 51.2893 5.73932 51.398 5.8912 51.5424C5.91823 51.5686 5.94104 51.5933 5.96073 51.618C6.01698 51.6893 6.00526 51.7926 5.93432 51.849C5.90432 51.873 5.86823 51.8846 5.83245 51.8846ZM4.00182 51.7008C3.94089 51.7008 3.88245 51.6668 3.85417 51.6085C3.81432 51.5271 3.84823 51.429 3.92964 51.3891C4.14839 51.2822 4.37573 51.213 4.60557 51.1825C4.69729 51.1691 4.77792 51.2343 4.78979 51.324C4.80167 51.4138 4.73839 51.4965 4.64854 51.5083C4.45385 51.534 4.26042 51.593 4.0737 51.6841C4.05042 51.6954 4.02589 51.7008 4.00182 51.7008ZM2.30432 51.2424C2.24776 51.2424 2.1926 51.2132 2.16214 51.1607C2.05198 50.9708 1.95479 50.7619 1.8737 50.5404C1.84245 50.4554 1.88604 50.3611 1.9712 50.3296C2.05698 50.2988 2.15057 50.3421 2.18198 50.4274C2.25667 50.631 2.34573 50.8222 2.44635 50.9957C2.49198 51.0743 2.4651 51.1746 2.38667 51.2202C2.36073 51.2354 2.33229 51.2424 2.30432 51.2424ZM1.84635 50.0179C1.77073 50.0179 1.7026 49.9652 1.68604 49.8883C1.67292 49.8274 1.66057 49.7652 1.64901 49.7019C1.61901 49.5377 1.5951 49.3786 1.57729 49.2251C1.56667 49.1349 1.63135 49.0535 1.72151 49.0429C1.81385 49.034 1.89292 49.0974 1.90354 49.1872C1.92073 49.3338 1.94323 49.4858 1.97198 49.643C1.98292 49.703 1.99464 49.7613 2.00714 49.8191C2.0262 49.9076 1.96995 49.9952 1.8812 50.0141C1.86948 50.0166 1.85792 50.0179 1.84635 50.0179ZM1.69823 48.7152C1.60823 48.7152 1.53495 48.6427 1.53401 48.5526L1.53385 48.5063C1.53385 48.2891 1.54682 48.0768 1.57229 47.8758C1.58385 47.7857 1.66667 47.7229 1.75589 47.7335C1.84589 47.7451 1.90948 47.8271 1.89807 47.9169C1.87417 48.1049 1.86214 48.303 1.86214 48.5065L1.86229 48.5494C1.86323 48.6399 1.79042 48.7143 1.69979 48.7152C1.69932 48.7152 1.6987 48.7152 1.69823 48.7152ZM1.86964 47.4191C1.85401 47.4191 1.83823 47.4169 1.8226 47.4124C1.73573 47.3861 1.68635 47.2947 1.71229 47.2077C1.77932 46.9838 1.8662 46.7696 1.97073 46.5715C2.01307 46.4913 2.11214 46.4608 2.1926 46.5029C2.27276 46.5452 2.30354 46.6446 2.2612 46.7247C2.16651 46.904 2.0876 47.0983 2.02682 47.3021C2.00557 47.3732 1.94042 47.4191 1.86964 47.4191ZM2.4801 46.2677C2.44307 46.2677 2.40573 46.2552 2.3751 46.2296C2.30557 46.1715 2.29604 46.0679 2.35432 45.9983C2.50089 45.8226 2.6676 45.661 2.84979 45.5179C2.9212 45.4624 3.02417 45.4743 3.08026 45.5457C3.13635 45.6169 3.12385 45.7202 3.05245 45.7763C2.88839 45.9049 2.73839 46.0505 2.60635 46.2086C2.57401 46.2476 2.52729 46.2677 2.4801 46.2677ZM3.50573 45.4597C3.44557 45.4597 3.38776 45.4268 3.35885 45.3693C3.31807 45.2882 3.35089 45.1896 3.43182 45.149C3.79964 44.964 4.07667 44.9058 4.08823 44.9033C4.1776 44.8844 4.2637 44.9421 4.28198 45.031C4.30026 45.1197 4.24323 45.2068 4.15448 45.2251C4.15214 45.2257 3.90557 45.2783 3.57948 45.4422C3.55573 45.4544 3.53042 45.4597 3.50573 45.4597Z" fill="var(--fill-0, #241726)"/>
<path id="Vector_49" d="M73.1004 45.8726C73.0957 45.8726 73.0909 45.8723 73.0863 45.872C72.8584 45.8524 72.6293 45.8028 72.4055 45.7239C72.3201 45.6937 72.2752 45.5998 72.3054 45.5145C72.3355 45.4289 72.4288 45.3832 72.5149 45.414C72.7123 45.4835 72.914 45.5276 73.1141 45.5449C73.2046 45.5526 73.2715 45.6321 73.2638 45.7226C73.2566 45.8082 73.1848 45.8726 73.1004 45.8726ZM73.7538 45.8409C73.6762 45.8409 73.6071 45.7857 73.5924 45.7065C73.5759 45.6173 73.6349 45.5317 73.7241 45.5154C73.9209 45.4789 74.118 45.416 74.3099 45.3284C74.3927 45.2909 74.4896 45.3271 74.5276 45.4095C74.5651 45.4923 74.5288 45.5893 74.4463 45.6273C74.2299 45.726 74.0071 45.797 73.7838 45.8381C73.7737 45.8399 73.7637 45.8409 73.7538 45.8409ZM71.8694 45.4484C71.8401 45.4484 71.8102 45.4404 71.7834 45.424C71.5935 45.3067 71.4093 45.1678 71.2357 45.0103C71.1685 44.9496 71.1634 44.8457 71.2243 44.7784C71.2849 44.711 71.3891 44.7059 71.4563 44.7671C71.6149 44.9109 71.783 45.0379 71.9559 45.1443C72.033 45.1921 72.0569 45.2932 72.0093 45.3704C71.9784 45.4207 71.9244 45.4484 71.8694 45.4484ZM74.9435 45.3098C74.8926 45.3098 74.8423 45.286 74.8102 45.2418C74.7571 45.1681 74.7737 45.0654 74.8473 45.0124C75.0088 44.8957 75.1704 44.7581 75.3274 44.6032C75.3924 44.5398 75.4962 44.5404 75.5596 44.6051C75.6234 44.6696 75.6226 44.7735 75.558 44.8373C75.389 45.0037 75.2148 45.1523 75.0394 45.2785C75.0104 45.2998 74.9768 45.3098 74.9435 45.3098ZM70.8988 44.5728C70.8501 44.5728 70.8019 44.5512 70.7696 44.5099C70.6234 44.3239 70.4974 44.1303 70.3951 43.9349C70.353 43.8545 70.384 43.7553 70.4643 43.7129C70.5448 43.6715 70.6438 43.702 70.6859 43.7821C70.779 43.9601 70.894 44.1368 71.0277 44.3071C71.0838 44.3784 71.0713 44.4817 71.0001 44.5378C70.9701 44.5612 70.9343 44.5728 70.8988 44.5728ZM75.8816 44.3967C75.8455 44.3967 75.8091 44.3848 75.7788 44.3604C75.7082 44.3037 75.6971 44.2001 75.7538 44.1295C75.8362 44.0268 75.9187 43.9181 76.0009 43.8034C76.0463 43.7395 76.089 43.676 76.129 43.6132C76.1782 43.537 76.2796 43.5145 76.3557 43.5629C76.4323 43.6117 76.4546 43.7134 76.406 43.7896C76.3627 43.8576 76.3168 43.9256 76.268 43.994C76.1821 44.1146 76.0959 44.2284 76.0096 44.3356C75.9773 44.3759 75.9298 44.3967 75.8816 44.3967ZM76.573 43.2851C76.5521 43.2851 76.5305 43.2809 76.5101 43.2726C76.4263 43.2376 76.3866 43.1418 76.4213 43.0578C76.5035 42.8606 76.5637 42.6604 76.6004 42.4631C76.6171 42.3739 76.7018 42.3149 76.7921 42.3318C76.8813 42.3485 76.9399 42.4342 76.9235 42.5232C76.8824 42.7432 76.8155 42.9656 76.7248 43.184C76.6985 43.2468 76.6374 43.2851 76.573 43.2851ZM76.8062 42.004C76.7194 42.004 76.6469 41.936 76.6423 41.8484C76.6316 41.6445 76.5969 41.4398 76.5387 41.2399C76.5134 41.1531 76.5634 41.062 76.6504 41.0364C76.7374 41.0117 76.8285 41.061 76.8538 41.1482C76.9191 41.3724 76.9584 41.6021 76.9702 41.831C76.9749 41.9218 76.9052 41.9992 76.8148 42.0035C76.8119 42.004 76.8091 42.004 76.8062 42.004ZM76.4479 40.752C76.3891 40.752 76.3324 40.7206 76.3027 40.6651C76.2076 40.4865 76.0918 40.3101 75.9587 40.141C75.9027 40.0695 75.9149 39.9662 75.9862 39.9104C76.0574 39.854 76.161 39.8671 76.2168 39.9376C76.3619 40.122 76.4884 40.3148 76.5927 40.5104C76.6354 40.5906 76.6051 40.6901 76.5251 40.7328C76.5002 40.7459 76.4738 40.752 76.4479 40.752ZM73.2623 39.9951C73.173 39.9951 73.0998 39.9235 73.098 39.8342C73.0963 39.7437 73.1684 39.6687 73.2588 39.6668C73.4421 39.6632 73.6438 39.6278 73.8584 39.5614C73.946 39.5342 74.0369 39.5832 74.0638 39.6698C74.0905 39.7564 74.0421 39.8484 73.9555 39.8751C73.7115 39.9504 73.4793 39.9912 73.2654 39.9954C73.2644 39.9951 73.2634 39.9951 73.2623 39.9951ZM72.6344 39.8407C72.6024 39.8407 72.5699 39.8314 72.5416 39.8118C72.3337 39.6689 72.2191 39.4471 72.2191 39.1881C72.2191 39.1554 72.2209 39.1217 72.2246 39.0873C72.2341 38.9968 72.3135 38.9301 72.4054 38.9414C72.4955 38.951 72.5609 39.0318 72.5512 39.122C72.5488 39.1448 72.5476 39.1668 72.5476 39.1881C72.5476 39.3401 72.6082 39.459 72.7277 39.5412C72.8024 39.5924 72.8213 39.6948 72.7701 39.7695C72.738 39.816 72.6866 39.8407 72.6344 39.8407ZM75.6432 39.7209C75.6029 39.7209 75.5626 39.7062 75.531 39.6767C75.393 39.5471 75.2452 39.4249 75.0909 39.3126C74.9237 39.4251 74.7549 39.5259 74.5882 39.6121C74.5074 39.6539 74.4084 39.6221 74.3669 39.5415C74.3254 39.461 74.3568 39.3618 74.4374 39.3203C74.6168 39.2276 74.7991 39.1167 74.9796 38.9906C75.0299 38.9553 75.0938 38.9528 75.1459 38.9778C75.1748 38.9799 75.2037 38.9896 75.229 39.0076C75.4143 39.1384 75.5915 39.2831 75.7555 39.4367C75.8218 39.4989 75.8251 39.6028 75.763 39.6689C75.7305 39.7035 75.6869 39.7209 75.6432 39.7209ZM74.5729 38.9646C74.5476 38.9646 74.5218 38.9589 74.4976 38.9464C74.3034 38.8456 74.1082 38.7635 73.9176 38.7023C73.8312 38.6746 73.7837 38.5823 73.8115 38.4957C73.8394 38.4095 73.9323 38.362 74.018 38.3899C74.226 38.4567 74.4382 38.5459 74.6487 38.6545C74.7291 38.6962 74.7605 38.7953 74.7188 38.8757C74.6896 38.9321 74.6324 38.9646 74.5729 38.9646ZM75.5898 38.884C75.544 38.884 75.4985 38.8651 75.4662 38.8279C75.4065 38.7596 75.4134 38.6557 75.4818 38.596C75.639 38.4587 75.7948 38.3096 75.9452 38.1521C76.0077 38.0867 76.1121 38.0845 76.1773 38.147C76.2429 38.2095 76.2452 38.3134 76.1826 38.3792C76.0255 38.5434 75.8626 38.6996 75.6979 38.8435C75.6665 38.8706 75.628 38.884 75.5898 38.884ZM72.6915 38.7121C72.6373 38.7121 72.5841 38.6853 72.5529 38.636C72.5041 38.5598 72.5266 38.4581 72.6029 38.4093C72.7673 38.3048 72.9782 38.2515 73.2298 38.2515C73.259 38.249 73.2977 38.2524 73.333 38.2543C73.4237 38.2589 73.4932 38.336 73.4888 38.4265C73.4841 38.5173 73.4066 38.5907 73.3165 38.5821C73.2871 38.5806 73.2549 38.5776 73.2302 38.5799C73.0444 38.5799 72.8888 38.6168 72.7798 38.6864C72.7523 38.7039 72.7216 38.7121 72.6915 38.7121ZM76.4974 37.937C76.461 37.937 76.4244 37.9248 76.394 37.9001C76.3235 37.8431 76.313 37.7395 76.3702 37.6692C76.5024 37.5065 76.6334 37.3334 76.7596 37.1545C76.8118 37.0804 76.9148 37.0624 76.9885 37.1146C77.0626 37.167 77.0804 37.2695 77.0282 37.3435C76.8977 37.5285 76.7621 37.7079 76.6251 37.8764C76.5924 37.9165 76.5452 37.937 76.4974 37.937ZM77.2543 36.8648C77.2249 36.8648 77.1952 36.8571 77.1685 36.8404C77.0912 36.7929 77.0669 36.692 77.1146 36.6146C77.1943 36.4848 77.2734 36.3504 77.3513 36.2112C77.3802 36.1593 77.4077 36.1079 77.4338 36.0564C77.4751 35.9756 77.574 35.9437 77.6544 35.9839C77.7354 36.0249 77.7679 36.1237 77.7269 36.2045C77.6987 36.2599 77.6691 36.3157 77.6379 36.3715C77.5576 36.5145 77.4765 36.6528 77.3944 36.7865C77.3634 36.8368 77.3094 36.8648 77.2543 36.8648ZM77.8276 35.6871C77.8116 35.6871 77.7954 35.6849 77.7793 35.6798C77.6926 35.6532 77.644 35.5615 77.6705 35.4745C77.7332 35.2712 77.7751 35.0659 77.7951 34.8645C77.8038 34.774 77.8813 34.7106 77.9746 34.717C78.0648 34.7259 78.1309 34.8065 78.1218 34.8965C78.0996 35.1201 78.0535 35.3468 77.9844 35.5714C77.9627 35.6418 77.8979 35.6871 77.8276 35.6871ZM77.9515 34.3895C77.8694 34.3895 77.7985 34.3282 77.7885 34.2445C77.7644 34.0428 77.7177 33.8392 77.6498 33.6403C77.6204 33.5543 77.6663 33.461 77.7521 33.4315C77.8376 33.4029 77.9315 33.4482 77.9605 33.5339C78.036 33.7548 78.0879 33.9809 78.1146 34.206C78.1254 34.2959 78.061 34.3776 77.971 34.3882C77.9646 34.3892 77.9579 34.3895 77.9515 34.3895ZM77.5354 33.1543C77.4782 33.1543 77.4227 33.1245 77.3924 33.0709C77.2919 32.8939 77.1729 32.7184 77.038 32.5493C76.9815 32.4784 76.993 32.3751 77.0638 32.3187C77.1349 32.2626 77.2382 32.2735 77.2946 32.3446C77.4402 32.5271 77.5693 32.717 77.6782 32.9092C77.7229 32.9881 77.6952 33.0881 77.6163 33.1328C77.5905 33.1476 77.5629 33.1543 77.5354 33.1543ZM76.7221 32.1267C76.6812 32.1267 76.6404 32.1115 76.6084 32.081C76.4584 31.9374 76.2951 31.7985 76.1226 31.6682C76.0502 31.6134 76.0359 31.5104 76.0905 31.4379C76.1451 31.3654 76.248 31.3517 76.3205 31.4059C76.5032 31.5439 76.6765 31.6914 76.8359 31.8437C76.9013 31.9065 76.9035 32.0104 76.8407 32.0759C76.8084 32.1098 76.7652 32.1267 76.7221 32.1267ZM72.8046 31.906C72.4848 31.906 72.283 31.6906 72.2651 31.3296C72.2605 31.2392 72.3304 31.1623 72.421 31.1578C72.5077 31.1431 72.5887 31.2229 72.5932 31.3137C72.6063 31.5776 72.7402 31.5776 72.8046 31.5776C72.8938 31.5776 72.9773 31.6489 72.9794 31.7379C72.9813 31.8271 72.9224 31.9015 72.8332 31.9054C72.8307 31.9057 72.8071 31.906 72.8046 31.906ZM73.4304 31.6687C73.3768 31.6687 73.3244 31.6428 73.2929 31.5946C73.2432 31.5187 73.2641 31.417 73.3401 31.3673C73.4977 31.2637 73.6591 31.1303 73.8198 30.9699C73.8841 30.9065 73.988 30.9062 74.0519 30.9703C74.1158 31.0348 74.1159 31.1387 74.0516 31.2028C73.8754 31.3785 73.6966 31.5264 73.5204 31.6418C73.4927 31.6601 73.4615 31.6687 73.4304 31.6687ZM75.6769 31.3349C75.6482 31.3349 75.6191 31.3276 75.5927 31.3115C75.4087 31.2015 75.2184 31.1009 75.0274 31.0129C74.9451 30.9751 74.9091 30.8776 74.9471 30.7951C74.9849 30.7123 75.0816 30.676 75.1651 30.7146C75.3666 30.8076 75.5673 30.9135 75.7615 31.0299C75.8393 31.0765 75.8646 31.1771 75.818 31.2551C75.7873 31.3064 75.7327 31.3349 75.6769 31.3349ZM72.6041 30.8701C72.5646 30.8701 72.5252 30.856 72.4938 30.8274C72.4266 30.7665 72.4216 30.6626 72.4826 30.5956C72.6379 30.4243 72.8699 30.3192 73.1723 30.2829C73.2644 30.2717 73.3441 30.3362 73.3551 30.4264C73.3659 30.5162 73.3016 30.5979 73.2116 30.6089C72.9929 30.6354 72.8249 30.707 72.7255 30.8164C72.6932 30.8518 72.6487 30.8701 72.6041 30.8701ZM74.4846 30.7874C74.4677 30.7874 74.4509 30.7849 74.434 30.7795C74.4069 30.7709 74.3799 30.7621 74.353 30.7542C74.3302 30.7523 74.3074 30.7459 74.2866 30.7343C74.126 30.6881 73.9699 30.6532 73.8213 30.6301C73.7318 30.616 73.6704 30.5323 73.6844 30.4424C73.6984 30.3532 73.7816 30.2931 73.8721 30.3056C74.011 30.3274 74.1551 30.3582 74.303 30.3979C74.4032 30.2581 74.4979 30.1112 74.5852 29.9598C74.6305 29.8812 74.7312 29.854 74.8096 29.8998C74.8882 29.9451 74.9151 30.0454 74.8698 30.124C74.7904 30.2614 74.7054 30.3954 74.6159 30.5243C74.6469 30.5657 74.6582 30.6212 74.641 30.6742C74.6184 30.7431 74.554 30.7874 74.4846 30.7874ZM75.0218 29.6187C75.0001 29.6187 74.978 29.6145 74.9566 29.6053C74.8734 29.5693 74.8352 29.4724 74.8712 29.3895C74.9552 29.1951 75.0288 28.9937 75.0902 28.7907C75.1163 28.7042 75.2082 28.6551 75.2949 28.681C75.3816 28.7073 75.4309 28.7987 75.4046 28.8857C75.3396 29.1009 75.2616 29.3142 75.1727 29.5198C75.1459 29.5818 75.0852 29.6187 75.0218 29.6187ZM75.401 28.3643C75.3913 28.3643 75.3816 28.3634 75.3716 28.3618C75.2824 28.3457 75.2232 28.2601 75.2391 28.171C75.2768 27.9626 75.3027 27.7496 75.316 27.5382C75.3216 27.4478 75.4004 27.3746 75.4904 27.3846C75.5809 27.3904 75.6496 27.4684 75.6438 27.5589C75.6298 27.7831 75.6023 28.0085 75.5626 28.2295C75.548 28.3085 75.479 28.3643 75.401 28.3643ZM75.4744 27.0571C75.3907 27.0571 75.3193 26.9937 75.3112 26.9087C75.2909 26.6964 75.2501 26.4921 75.1896 26.3015C75.1621 26.2149 75.2099 26.1226 75.2965 26.0953C75.3834 26.0687 75.4754 26.1157 75.5027 26.2021C75.5701 26.4148 75.6159 26.6418 75.638 26.8773C75.6466 26.9678 75.5805 27.0479 75.4902 27.0565C75.4849 27.0567 75.4796 27.0571 75.4744 27.0571ZM75.0768 25.8204C75.0213 25.8204 74.9671 25.7921 74.9362 25.7415C74.8313 25.5684 74.7038 25.4051 74.5569 25.2556C74.4935 25.1907 74.4944 25.0868 74.559 25.0234C74.6238 24.9596 74.7273 24.9606 74.7913 25.0253C74.9557 25.1928 75.0991 25.3765 75.2171 25.5709C75.2641 25.6485 75.2394 25.7495 75.1618 25.7967C75.1351 25.8126 75.1057 25.8204 75.0768 25.8204ZM74.1694 24.8857C74.1377 24.8857 74.1055 24.8764 74.0771 24.8571C73.9112 24.7442 73.7266 24.6393 73.5285 24.546C73.4466 24.5076 73.4115 24.4095 73.4501 24.3276C73.4885 24.2451 73.5869 24.2106 73.6687 24.249C73.8823 24.3498 74.0819 24.4629 74.2621 24.5857C74.3369 24.6367 74.3565 24.739 74.3052 24.8139C74.2735 24.8607 74.2218 24.8857 74.1694 24.8857ZM72.9873 24.3203C72.9702 24.3203 72.953 24.3176 72.9362 24.3123C72.7388 24.2474 72.5305 24.191 72.3174 24.1442C72.2288 24.1249 72.1727 24.0373 72.1921 23.9489C72.2113 23.8599 72.2984 23.8039 72.3876 23.8234C72.6115 23.8724 72.8305 23.9318 73.0383 23.9998C73.1244 24.0284 73.1715 24.121 73.1432 24.2073C73.1207 24.2764 73.0563 24.3203 72.9873 24.3203ZM71.7038 24.0356C71.6969 24.0356 71.6899 24.0353 71.6827 24.0343C71.3023 23.9856 71.0465 23.9834 71.0438 23.9834C70.9532 23.9828 70.8802 23.9087 70.8807 23.8182C70.8813 23.7278 70.9546 23.6549 71.0449 23.6549C71.0563 23.6571 71.3109 23.6559 71.7243 23.7085C71.8143 23.7201 71.8777 23.8021 71.8663 23.8923C71.856 23.9749 71.7852 24.0356 71.7038 24.0356Z" fill="var(--fill-0, #241726)"/>
<path id="Vector_50" d="M64.4503 33.9474C64.4503 33.9474 60.9507 28.0677 62.3295 28.3918C63.7084 28.7159 64.8101 32.4251 64.8101 32.4251C64.8101 32.4251 65.0067 24.9991 65.9339 26.1157C66.8612 27.2323 65.9339 31.0341 65.9339 31.0341C65.9339 31.0341 65.9254 24.9065 67.0887 26.1157C68.252 27.3249 67.0887 31.4979 67.0887 31.4979C67.0887 31.4979 68.252 26.3502 68.8084 27.3477C69.3648 28.3451 67.9739 32.518 67.9739 32.518C67.9739 32.518 69.9212 29.261 70.2922 30.0087C70.6631 30.7562 67.0887 35.2073 67.0887 35.2073V38.3601L64.0792 37.8326L64.4503 33.9474Z" fill="var(--fill-0, #E38B72)"/>
<path id="Vector_51" d="M66.1636 34.3813C66.1491 34.3813 66.1343 34.3794 66.1196 34.3752C66.0324 34.3511 65.9811 34.2606 66.0052 34.1731C66.0855 33.8825 66.2175 33.0503 65.8671 32.6955C65.6699 32.4956 65.3283 32.4578 64.8519 32.5833C64.7646 32.6077 64.6746 32.5541 64.6513 32.4663C64.6282 32.3788 64.6807 32.2889 64.7682 32.2658C65.3665 32.1083 65.815 32.1756 66.1013 32.4653C66.6563 33.0281 66.3354 34.2111 66.3216 34.2611C66.3016 34.3339 66.2355 34.3813 66.1636 34.3813Z" fill="var(--fill-0, #241726)"/>
<path id="Vector_52" d="M65.934 31.1985C65.8468 31.1985 65.7742 31.1299 65.7701 31.0416C65.739 30.3594 65.8796 28.46 65.8857 28.3796C65.8923 28.2891 65.9721 28.2199 66.0617 28.2278C66.1521 28.2346 66.22 28.3135 66.2132 28.4039C66.2118 28.4235 66.0681 30.3642 66.0982 31.0267C66.1025 31.1172 66.0321 31.1942 65.9417 31.198C65.9392 31.1985 65.9367 31.1985 65.934 31.1985Z" fill="var(--fill-0, #241726)"/>
<path id="Vector_53" d="M67.0889 31.6614C67.0797 31.6614 67.0703 31.6608 67.0609 31.6592C66.9714 31.6439 66.9116 31.5587 66.9269 31.4694L67.4248 28.5687C67.4401 28.4795 67.5252 28.4194 67.6144 28.4347C67.7039 28.45 67.7637 28.535 67.7484 28.6245L67.2505 31.5251C67.2369 31.605 67.1675 31.6614 67.0889 31.6614Z" fill="var(--fill-0, #241726)"/>
<path id="Vector_54" d="M63.1416 34.7962C63.1416 34.7962 63.2795 44.7865 62.576 45.0648C61.8726 45.3431 55.1202 41.1289 55.1202 41.1289L39.3537 42.3126L23.5607 43.6298C23.5607 43.6298 8.69727 50.4198 8.55665 52.6708C8.41602 54.9215 15.8893 59.0475 15.8893 59.0475L19.371 55.4075L12.6345 52.9456L21.5921 49.734C19.7966 56.2536 19.1466 61.7378 19.1466 61.7378L31.8904 61.5237L35.2656 70.6709L39.2187 70.3325L39.9713 61.3879L41.2571 61.3664L42.0116 70.3325L45.9648 70.6709L49.4488 61.2287L63.1106 60.9992C63.1106 60.9992 61.1534 53.7509 57.4202 46.0893C60.2199 46.9275 63.8057 48.0025 64.3766 48.182C65.3335 48.4828 67.9424 36.2886 67.9424 36.2886L63.1416 34.7962Z" fill="var(--fill-0, #DF4F3E)"/>
<g id="Group_7">
<path id="Vector_55" d="M37.4444 39.5236L38.6339 60.2603L18.1511 60.3155L18.5731 64.4806L64.3775 63.1091L63.9248 58.9149L41.1292 59.8386C41.1292 59.8386 40.4273 38.7371 39.7944 38.8425C39.1616 38.948 37.4444 39.5236 37.4444 39.5236Z" fill="var(--fill-0, white)"/>
<path id="Vector_56" d="M18.5733 64.6449C18.4892 64.6449 18.4183 64.5814 18.4098 64.4974L17.9878 60.332C17.9831 60.2858 17.9983 60.24 18.0292 60.2053C18.0603 60.171 18.1044 60.1511 18.1508 60.1511L38.4603 60.0963L37.2805 39.5327C37.2761 39.4589 37.322 39.3913 37.3922 39.3678C37.4628 39.3441 39.1289 38.7871 39.7677 38.6805C39.8133 38.6731 39.8903 38.6946 39.927 38.7247C40.5538 39.2378 41.1205 54.6621 41.288 59.6677L63.9184 58.7505C64.0013 58.7492 64.0791 58.8111 64.0883 58.8971L64.5408 63.0911C64.5458 63.1367 64.5314 63.1822 64.5013 63.2166C64.4713 63.2513 64.4281 63.2714 64.3825 63.273L18.5783 64.6449C18.5766 64.6449 18.5748 64.6449 18.5733 64.6449ZM18.333 60.4789L18.7214 64.3119L64.1953 62.9502L63.7784 59.0852L41.1361 60.0028C41.0945 60.0031 41.05 59.9888 41.0178 59.9589C40.9858 59.9291 40.967 59.8877 40.9655 59.8441C40.7033 51.9642 40.1647 40.1019 39.7341 39.0211C39.1711 39.1341 37.993 39.5156 37.6155 39.6402L38.798 60.2511C38.8005 60.296 38.7845 60.3403 38.7536 60.373C38.7228 60.4056 38.6797 60.4247 38.6345 60.4247L18.333 60.4789Z" fill="var(--fill-0, #241726)"/>
</g>
<path id="Vector_57" d="M23.3979 14.8927C23.3979 14.8927 34.9885 7.62383 40.3343 11.8441C45.6799 16.0645 57.8157 26.1174 37.6765 32.6882C17.5373 39.259 18.4743 18.1282 23.3979 14.8927Z" fill="var(--fill-0, #E38B72)"/>
<path id="Vector_58" d="M23.8343 16.9167C23.8343 16.9167 17.3493 27.6894 27.056 32.0503C36.7627 36.4112 28.6738 23.1225 35.8482 23.0522C43.0225 22.9819 42.5008 32.089 45.625 26.6394C50.0563 18.9098 37.8371 12.9755 39.6658 12.694C41.4946 12.4126 42.7569 11.9236 43.3039 12.9937C44.9217 16.1589 63.8425 18.902 61.7324 29.4528C59.6222 40.0034 53.1511 47.6 34.5821 48.1626C16.0128 48.7256 11.0189 36.9089 15.8019 28.0462C20.5849 19.1837 18.0733 17.632 19.6208 17.4914C21.1682 17.3508 23.8343 16.9167 23.8343 16.9167Z" fill="var(--fill-0, #F4F1E3)"/>
<path id="Vector_59" d="M36.5864 25.3305C36.035 25.3305 34.5328 24.1673 33.8852 23.6438C33.8147 23.5871 33.8038 23.4835 33.8606 23.4129C33.9178 23.3427 34.0208 23.3312 34.0917 23.3885C35.025 24.1426 36.1583 24.9296 36.5084 25.0018C36.4809 24.4835 35.4627 22.0512 34.4338 19.8676C34.3952 19.7855 34.4303 19.6877 34.5122 19.6491C34.5945 19.6107 34.6923 19.6452 34.7308 19.7277C35.4266 21.204 37.0217 24.6916 36.8084 25.1905C36.7819 25.2524 36.7342 25.2977 36.6741 25.3179C36.6483 25.3263 36.6191 25.3305 36.5864 25.3305Z" fill="var(--fill-0, #241726)"/>
<path id="Vector_60" d="M37.3719 30.2556C37.2711 30.2556 37.1532 30.2273 37.0191 30.1504C35.4693 29.2626 33.9072 26.1621 33.8416 26.0307C33.801 25.9496 33.834 25.8507 33.9151 25.8104C33.996 25.7696 34.0949 25.8031 34.1354 25.8839C34.151 25.9153 35.7185 29.027 37.1824 29.8656C37.3449 29.9582 37.4296 29.9265 37.4793 29.8945C38.083 29.5032 38.0176 26.4512 37.8344 24.6195C37.8254 24.5293 37.8911 24.4489 37.9815 24.4398C38.0733 24.4298 38.1522 24.4965 38.1613 24.5867C38.2118 25.0921 38.6269 29.5418 37.6579 30.1698C37.5876 30.2156 37.4918 30.2556 37.3719 30.2556Z" fill="var(--fill-0, #241726)"/>
<path id="Vector_61" d="M28.4327 24.768C26.4936 24.768 25.5302 21.0045 25.4894 20.8414C25.4672 20.7536 25.5208 20.6644 25.6088 20.6422C25.697 20.6206 25.7859 20.6736 25.808 20.7619C25.8177 20.7997 26.7878 24.5698 28.5205 24.4361C28.813 24.4145 29.0202 24.2998 29.1536 24.0851C29.7225 23.1711 28.8116 20.8859 28.8022 20.8631C28.7683 20.7787 28.8089 20.6831 28.8931 20.6492C28.9764 20.6159 29.0728 20.6559 29.1067 20.74C29.1474 20.84 30.0891 23.2031 29.4325 24.2583C29.2424 24.5639 28.9436 24.7339 28.5447 24.7637C28.507 24.7664 28.4697 24.768 28.4327 24.768Z" fill="var(--fill-0, #241726)"/>
<path id="Vector_62" d="M39.9255 21.8292C39.8632 21.8292 39.795 21.8221 39.7203 21.8064C37.9778 21.4346 37.5313 18.2168 37.5132 18.0799C37.5013 17.9901 37.5644 17.9078 37.6542 17.8959C37.7439 17.8792 37.8266 17.9468 37.8386 18.037C37.8428 18.0681 38.2721 21.1615 39.7888 21.4851C40.0185 21.5339 40.116 21.4604 40.168 21.4004C40.6047 20.9004 40.0691 18.7715 39.6289 17.547C39.5983 17.4617 39.6425 17.3678 39.728 17.337C39.8125 17.3068 39.9071 17.3507 39.938 17.436C40.0611 17.7785 41.1216 20.8078 40.4153 21.6164C40.325 21.7201 40.1714 21.8292 39.9255 21.8292Z" fill="var(--fill-0, #241726)"/>
<path id="Vector_63" d="M27.3014 28.4486C28.0177 28.0192 28.2502 27.0903 27.8208 26.374C27.3914 25.6577 26.4625 25.4252 25.7462 25.8546C25.0299 26.284 24.7973 27.2128 25.2268 27.9292C25.6562 28.6455 26.585 28.878 27.3014 28.4486Z" fill="var(--fill-0, #DF4F3E)"/>
<path id="Vector_64" d="M42.9875 23.1728C43.8226 23.1728 44.4996 22.4958 44.4996 21.6606C44.4996 20.8255 43.8226 20.1484 42.9875 20.1484C42.1523 20.1484 41.4753 20.8255 41.4753 21.6606C41.4753 22.4958 42.1523 23.1728 42.9875 23.1728Z" fill="var(--fill-0, #DF4F3E)"/>
<path id="Vector_65" d="M37.3905 10.42C37.3905 10.42 33.7225 4.48308 27.5758 1.38824C21.4289 -1.70661 12.4258 8.91433 12.4258 8.91433L20.5147 6.66355C20.5147 6.66355 18.988 14.144 19.6209 14.9657C20.2537 15.7875 37.3905 10.42 37.3905 10.42Z" fill="var(--fill-0, #DF4F3E)"/>
<g id="Group_8">
<path id="Vector_66" d="M11.653 11.1669C12.8457 11.1669 13.8126 10.2 13.8126 9.00734C13.8126 7.81467 12.8457 6.84781 11.653 6.84781C10.4603 6.84781 9.49349 7.81467 9.49349 9.00734C9.49349 10.2 10.4603 11.1669 11.653 11.1669Z" fill="var(--fill-0, white)"/>
<path id="Vector_67" d="M11.6532 11.3311C10.3719 11.3311 9.32943 10.2887 9.32943 9.0075C9.32943 7.72625 10.3719 6.68359 11.6532 6.68359C12.9344 6.68359 13.9769 7.72625 13.9769 9.0075C13.9769 10.2887 12.9344 11.3311 11.6532 11.3311ZM11.6532 7.01187C10.5529 7.01187 9.65771 7.90703 9.65771 9.00734C9.65771 10.1073 10.5529 11.0025 11.6532 11.0025C12.7533 11.0025 13.6485 10.1073 13.6485 9.00734C13.6485 7.90703 12.7533 7.01187 11.6532 7.01187Z" fill="var(--fill-0, #241726)"/>
</g>
<g id="Group_9">
<path id="Vector_68" d="M18.5726 14.5236C18.5726 14.5236 39.0644 6.74801 40.7476 8.50958C42.4307 10.2711 43.3037 12.9936 43.3037 12.9936C43.3037 12.9936 19.4591 20.834 18.9668 19.7977C18.4743 18.7615 18.5726 14.5236 18.5726 14.5236Z" fill="var(--fill-0, white)"/>
<path id="Vector_69" d="M19.3033 20.0552C18.9071 20.0552 18.8576 19.951 18.8182 19.8682C18.3149 18.8088 18.4043 14.6946 18.4083 14.5197C18.4099 14.453 18.4518 14.3936 18.5143 14.3699C20.6219 13.5704 39.1574 6.60833 40.866 8.39583C42.5557 10.1646 43.4237 12.8305 43.4598 12.9433C43.4874 13.0293 43.4404 13.1213 43.3548 13.1493C43.2951 13.1691 37.323 15.131 31.3674 16.9411C22.904 19.514 20.2054 20.0552 19.3033 20.0552ZM19.1057 19.7072C20.0494 20.1735 34.2255 15.8024 43.0941 12.8896C42.8821 12.2927 42.0387 10.0986 40.629 8.62301C39.4533 7.39239 26.9333 11.5322 18.7349 14.6379C18.724 15.3038 18.6885 18.7779 19.1057 19.7072Z" fill="var(--fill-0, #241726)"/>
</g>
<path id="Vector_70" d="M20.1385 25.7159C21.0078 24.8466 21.0078 23.4372 20.1385 22.568C19.2693 21.6987 17.8599 21.6987 16.9906 22.568C16.1214 23.4372 16.1214 24.8466 16.9906 25.7159C17.8599 26.5852 19.2693 26.5852 20.1385 25.7159Z" fill="var(--fill-0, #E38B72)"/>
<path id="Vector_71" d="M47.3509 18.1615C48.5803 18.1615 49.5769 17.1649 49.5769 15.9356C49.5769 14.7062 48.5803 13.7096 47.3509 13.7096C46.1216 13.7096 45.125 14.7062 45.125 15.9356C45.125 17.1649 46.1216 18.1615 47.3509 18.1615Z" fill="var(--fill-0, #E38B72)"/>
<path id="Vector_72" d="M19.2221 25.0239C19.1424 25.0239 19.0724 24.966 19.0599 24.8847C18.8871 23.7686 18.5752 23.4494 18.3443 23.378C17.9836 23.2674 17.588 23.683 17.5838 23.6869C17.5222 23.7533 17.4185 23.7571 17.3518 23.6949C17.2855 23.633 17.2816 23.5297 17.3435 23.4633C17.3652 23.4399 17.8819 22.8927 18.4396 23.0636C18.9068 23.2067 19.2246 23.8025 19.3844 24.8347C19.3982 24.9242 19.3369 25.0082 19.2474 25.0221C19.2388 25.0233 19.2304 25.0239 19.2221 25.0239Z" fill="var(--fill-0, #241726)"/>
<path id="Vector_73" d="M47.0247 17.4319C46.9535 17.4319 46.888 17.3853 46.8671 17.3136C46.5633 16.2731 46.59 15.5044 46.9461 15.0297C47.2808 14.5833 47.7774 14.5781 47.7985 14.5781C47.8892 14.5781 47.9627 14.6516 47.9627 14.7423C47.9627 14.8328 47.8897 14.9059 47.7995 14.9066C47.785 14.9069 47.4391 14.9152 47.2053 15.2314C46.9222 15.6144 46.9142 16.3027 47.1824 17.2219C47.2077 17.3088 47.1578 17.3998 47.0708 17.4252C47.0553 17.4297 47.0399 17.4319 47.0247 17.4319Z" fill="var(--fill-0, #241726)"/>
<path id="Vector_74" d="M18.0521 3.7297C18.0521 3.7297 20.1622 6.52298 22.9757 5.46783C25.7893 4.41283 24.7341 1.45861 26.5629 4.27205C28.3916 7.08548 32.9355 5.18126 32.8705 5.12298C32.8055 5.0647 29.2357 1.03642 26.2113 0.122046C23.1868 -0.792173 18.0521 3.7297 18.0521 3.7297Z" fill="var(--fill-0, #F4F1E3)"/>
<path id="Vector_75" d="M18.1505 56.3568C18.1505 56.3568 21.1826 57.9086 20.1701 60.7313C19.1576 63.5538 13.5944 65.2419 14.7288 63.5841C15.4146 62.5818 18.5271 61.6322 18.5271 61.6322C18.5271 61.6322 14.451 62.9726 13.6766 62.1071C13.2518 61.6322 17.556 60.9419 17.7215 60.9394C17.8869 60.9371 15.2565 61.2679 14.6235 60.3158C13.9905 59.3638 17.6687 61.1047 18.1507 59.2583C18.6327 57.4119 17.314 57.5174 17.314 57.5174L18.1505 56.3568Z" fill="var(--fill-0, #E38B72)"/>
<path id="Vector_76" d="M20.5343 53.9895C20.5343 53.9895 59.6882 51.1277 59.7585 51.3386C59.8288 51.5495 60.8013 54.0102 60.8013 54.0102L20.1107 55.9878L20.5343 53.9895Z" fill="var(--fill-0, #241726)"/>
<path id="Vector_77" d="M35.6849 51.6619L43.0218 51.0365V56.3571L36.4308 57.0205L35.6849 51.6619Z" fill="var(--fill-0, #E1AF01)"/>
<path id="Vector_78" d="M37.5195 52.827L41.188 52.5143V55.1746L37.8925 55.5064L37.5195 52.827Z" fill="var(--fill-0, #241726)"/>
<path id="Vector_79" d="M20.5143 6.82763C20.4424 6.82763 20.3765 6.78013 20.3563 6.70731C20.332 6.62013 20.3831 6.52966 20.4704 6.50528C21.4213 6.24028 23.4829 6.34966 23.5702 6.35481C23.6609 6.35966 23.7301 6.43731 23.7251 6.52763C23.7202 6.6181 23.6434 6.6906 23.5523 6.68247C23.5315 6.68185 21.4573 6.57153 20.5587 6.82138C20.5438 6.8256 20.5288 6.82763 20.5143 6.82763Z" fill="var(--fill-0, #241726)"/>
<g id="Group_10">
<path id="Vector_80" d="M35.4498 12.669C35.4269 12.669 35.4038 12.6642 35.3819 12.6543C35.2993 12.6168 35.2629 12.5193 35.3005 12.4368C35.4801 12.0426 35.7119 11.8229 35.9898 11.7832C36.3983 11.7268 36.7218 12.0943 36.7354 12.1104C36.7944 12.179 36.7866 12.282 36.7183 12.3413C36.6501 12.4007 36.5465 12.3929 36.4868 12.3249C36.4258 12.2554 36.2257 12.0815 36.0349 12.1085C35.8365 12.1378 35.6885 12.3773 35.5994 12.5729C35.5718 12.6335 35.5121 12.669 35.4498 12.669Z" fill="var(--fill-0, #241726)"/>
<path id="Vector_81" d="M37.1955 13.6521C37.1727 13.6521 37.1496 13.6473 37.1277 13.6373C37.0451 13.5998 37.0088 13.5023 37.0463 13.4198C37.2257 13.0256 37.4576 12.8059 37.7355 12.7662C38.1441 12.7085 38.4676 13.0773 38.4812 13.0934C38.5402 13.162 38.5324 13.2649 38.4641 13.3243C38.3958 13.3837 38.2924 13.3759 38.2326 13.3079C38.1716 13.2384 37.9699 13.0657 37.7807 13.0915C37.5821 13.1207 37.4343 13.3603 37.3452 13.5559C37.3176 13.6165 37.258 13.6521 37.1955 13.6521Z" fill="var(--fill-0, #241726)"/>
<path id="Vector_82" d="M33.4013 13.1399C33.3785 13.1399 33.3554 13.1351 33.3335 13.1253C33.251 13.0878 33.2146 12.9903 33.2521 12.9078C33.4315 12.5135 33.6635 12.2935 33.9413 12.2539C34.3519 12.1962 34.6733 12.5649 34.6869 12.581C34.746 12.6496 34.7382 12.7526 34.6699 12.812C34.6015 12.8714 34.498 12.864 34.4383 12.7956C34.3774 12.726 34.1804 12.5473 33.9865 12.5795C33.788 12.6084 33.6401 12.8479 33.5508 13.0439C33.5233 13.1043 33.4637 13.1399 33.4013 13.1399Z" fill="var(--fill-0, #241726)"/>
<path id="Vector_83" d="M35.1305 14.0306C35.1077 14.0306 35.0848 14.0257 35.0627 14.0159C34.9801 13.9784 34.9438 13.8809 34.9813 13.7984C35.1607 13.4042 35.3926 13.1842 35.6705 13.1445C36.0802 13.0857 36.4027 13.4556 36.4162 13.4717C36.4752 13.5403 36.4674 13.6432 36.3991 13.7026C36.3307 13.762 36.2273 13.7546 36.1676 13.6862C36.1066 13.6167 35.9094 13.4373 35.7157 13.4701C35.5173 13.499 35.3693 13.7385 35.2802 13.9345C35.2526 13.9949 35.193 14.0306 35.1305 14.0306Z" fill="var(--fill-0, #241726)"/>
<path id="Vector_84" d="M33.013 14.7168C32.9902 14.7168 32.9671 14.712 32.9452 14.7021C32.8626 14.6646 32.8262 14.5671 32.8638 14.4846C33.0432 14.0904 33.2752 13.8704 33.553 13.8307C33.9633 13.772 34.2851 14.1418 34.2987 14.1579C34.3577 14.2265 34.3499 14.3295 34.2816 14.3888C34.2132 14.4482 34.1097 14.4407 34.0501 14.3724C33.9891 14.3029 33.7904 14.1245 33.5982 14.1563C33.3997 14.1853 33.2518 14.4248 33.1626 14.6207C33.1351 14.6813 33.0754 14.7168 33.013 14.7168Z" fill="var(--fill-0, #241726)"/>
</g>
<g id="Group_11">
<path id="Vector_85" d="M62.873 34.2176L62.6875 35.9487L68.375 37.7723L69.0859 35.794L62.873 34.2176Z" fill="var(--fill-0, white)"/>
<path id="Vector_86" d="M68.375 37.9366C68.3583 37.9366 68.3414 37.9341 68.3248 37.929L62.6375 36.1051C62.5634 36.081 62.5161 36.0085 62.5244 35.9308L62.7097 34.1999C62.7147 34.1527 62.7402 34.1098 62.7791 34.0829C62.8181 34.0557 62.8672 34.0466 62.9133 34.0585L69.1263 35.6352C69.1711 35.6465 69.2092 35.6763 69.2308 35.7173C69.2527 35.758 69.2559 35.8062 69.2405 35.8498L68.5295 37.828C68.5055 37.8946 68.4425 37.9366 68.375 37.9366ZM62.8652 35.833L68.2742 37.5676L68.8703 35.9091L63.0161 34.4232L62.8652 35.833Z" fill="var(--fill-0, #241726)"/>
</g>
<g id="Group_12">
<path id="Vector_87" d="M18.3433 54.0285L14.4991 58.7483L16.0392 59.8391L20.3711 54.735L18.3433 54.0285Z" fill="var(--fill-0, white)"/>
<path id="Vector_88" d="M16.0391 60.0032C16.0063 60.0032 15.973 59.9932 15.9442 59.973L14.4039 58.8822C14.3669 58.856 14.3424 58.8155 14.3361 58.7703C14.33 58.7255 14.3428 58.6799 14.3716 58.6446L18.216 53.9247C18.2596 53.8708 18.3321 53.85 18.3974 53.8735L20.4252 54.58C20.4763 54.5977 20.5153 54.6397 20.5296 54.6916C20.5438 54.7439 20.5313 54.8 20.4964 54.8411L16.1646 59.945C16.1322 59.9833 16.086 60.0032 16.0391 60.0032ZM14.7374 58.7158L16.0114 59.618L20.0911 54.8113L18.3982 54.2214L14.7374 58.7158Z" fill="var(--fill-0, #241726)"/>
</g>
<path id="Vector_89" d="M34.3029 47.0245C34.0696 47.0245 33.8241 47.0044 33.5662 46.96C32.1085 46.7098 31.1234 46.1111 30.507 45.439C30.4995 45.4483 30.492 45.4576 30.4842 45.4665C29.9799 46.0701 28.8248 46.9865 26.7521 46.3364C24.8974 45.755 24.0501 44.7365 23.7296 43.7892C23.3371 44.2648 22.8532 44.6779 22.3293 44.8714C21.7354 45.0908 20.8443 45.1167 19.9801 43.9923C19.0798 42.8211 18.9154 41.8509 18.9868 41.1597C18.7624 41.1904 18.5313 41.2014 18.2992 41.1879C17.3018 41.1292 16.5517 40.6194 16.187 39.752C15.5987 38.3531 16.0913 37.0034 16.7718 36.1647C16.3051 35.8731 15.7599 35.3083 15.6338 34.2365C15.4742 32.8795 16.2137 31.7147 17.0602 30.9739C16.666 30.6878 16.3588 30.2722 16.1832 29.7664C15.9607 29.1259 15.9824 28.5726 16.2476 28.1214C16.6899 27.3683 17.6445 27.1926 17.6849 27.1854C17.7746 27.1681 17.8592 27.229 17.8749 27.3183C17.8909 27.4078 17.8313 27.4928 17.7421 27.5087C17.7338 27.5103 16.8937 27.6675 16.5296 28.2893C16.3165 28.6534 16.3043 29.1142 16.4934 29.6586C16.6873 30.2167 17.0156 30.5534 17.3279 30.7564C17.7251 30.4562 18.1276 30.2522 18.4573 30.1662C19.0601 30.0103 19.2457 30.2878 19.2981 30.4145C19.3968 30.6534 19.3717 30.8844 19.2271 31.0653C19.0063 31.3411 18.527 31.4626 18.004 31.3719C17.7748 31.3328 17.5576 31.2593 17.3568 31.1564C16.5512 31.834 15.8113 32.9364 15.9599 34.1981C16.0752 35.1779 16.5815 35.6718 16.994 35.915C17.2056 35.699 17.4254 35.5326 17.6296 35.4281C18.0971 35.1889 18.4985 35.2478 18.7043 35.5847C18.8876 35.8851 18.7863 36.1017 18.7098 36.2037C18.494 36.492 17.9488 36.5873 17.384 36.4353C17.3095 36.4154 17.1993 36.3804 17.0698 36.3231C16.4392 37.0787 15.9502 38.3433 16.4895 39.6253C16.8913 40.5808 17.7057 40.8242 18.3182 40.8604C18.5606 40.8742 18.8065 40.8572 19.0443 40.8172C19.0832 40.6529 19.1338 40.5115 19.1846 40.3945C19.4449 39.797 19.9448 39.35 20.4001 39.3069C20.6248 39.2858 20.8112 39.3665 20.9256 39.5345C21.0515 39.7189 21.0529 39.9403 20.9299 40.1573C20.7148 40.5367 20.0842 40.9236 19.3252 41.0979C19.2352 41.724 19.3585 42.6454 20.2401 43.7923C20.7377 44.4398 21.2851 44.7292 21.8677 44.6509C22.5495 44.5601 23.1715 43.9979 23.6229 43.3908C23.5256 42.8956 23.5618 42.442 23.656 42.1101C23.8115 41.5626 24.1329 41.2512 24.4554 41.3326C24.5268 41.3509 24.6943 41.4234 24.709 41.7025C24.729 42.0892 24.4441 42.8023 23.9763 43.4654C24.2085 44.3834 24.9734 45.435 26.8498 46.0229C28.741 46.6162 29.7801 45.7975 30.2316 45.2564C30.2518 45.232 30.2718 45.2076 30.2912 45.1826C29.8282 44.5781 29.6415 43.9434 29.6606 43.4675C29.6841 42.8725 30.0038 42.4754 30.4951 42.4306C30.7651 42.4065 30.9865 42.5339 31.1204 42.7895C31.387 43.2978 31.2673 44.3206 30.7026 45.1734C31.2699 45.8123 32.2065 46.3934 33.6213 46.6362C35.7385 47.0015 36.9446 45.5906 37.3649 44.9681C37.4865 44.7875 37.5912 44.6043 37.6793 44.4239C37.2296 43.7629 37.0193 43.0945 37.1646 42.6911C37.2424 42.4753 37.4165 42.3392 37.6548 42.3078C37.8999 42.2761 38.1013 42.3681 38.2245 42.5676C38.4584 42.9461 38.3795 43.6559 38.0574 44.3906C38.1596 44.5276 38.2741 44.6658 38.4015 44.8028C38.9306 45.3711 40.3721 46.6351 42.3351 46.0837C44.099 45.5886 44.9559 44.074 45.1884 42.7784C44.4809 42.2784 44.0173 41.6928 43.932 41.2386C43.8588 40.8486 44.056 40.5564 44.4593 40.4567C44.9398 40.3387 45.3251 40.6469 45.4926 41.2823C45.5876 41.6419 45.6082 42.1092 45.5393 42.6175C46.4234 43.1986 47.6865 43.6506 49.097 43.467C50.3181 43.3089 50.8321 42.2069 51.0482 41.3104C51.1904 40.72 51.2327 40.0878 51.2016 39.499C50.3573 38.9058 49.7399 38.1337 49.6251 37.6128C49.5412 37.2317 49.7165 37.0454 49.8284 36.9684C50.0984 36.782 50.3868 36.7762 50.6407 36.9504C51.1187 37.2786 51.4387 38.235 51.5192 39.3193C52.0081 39.6398 52.566 39.8931 53.1268 39.9897C54.2185 40.1767 55.0896 39.762 55.7168 38.7556C56.779 37.0515 56.277 35.7359 55.8282 35.0518C55.4442 35.0631 55.0888 35.0114 54.7831 34.9098C54.2104 34.7197 53.8543 34.3636 53.8304 33.9573C53.8193 33.7706 53.9035 33.6279 54.0615 33.5654C54.4684 33.4054 55.2754 33.8433 55.8601 34.5443C55.902 34.5943 55.9474 34.6518 55.9948 34.7165C56.909 34.644 57.9696 34.1886 58.8217 33.177C59.9048 31.8909 59.2932 30.1137 58.4034 29.0172C58.1265 29.175 57.8784 29.2164 57.7218 29.2234C57.2142 29.2439 56.7292 28.9851 56.5684 28.6009C56.462 28.3459 56.5201 28.0894 56.7282 27.8973C57.0513 27.5987 57.6409 27.7861 58.2668 28.3839C58.3313 28.4458 58.3962 28.5118 58.4609 28.582C58.8195 28.2822 59.1212 27.7764 59.3318 27.1025C59.8854 25.3314 58.6887 23.9234 57.5423 23.3692C57.4313 23.7381 57.2137 23.9795 57.0677 24.1075C56.602 24.5167 55.9207 24.6315 55.549 24.3631C55.4226 24.2717 55.1545 23.9981 55.3957 23.4279C55.6557 22.8134 56.3892 22.615 57.2799 22.9087C57.286 22.5575 57.1757 22.1601 56.9477 21.739C56.1935 20.3445 54.9379 19.9222 53.9849 19.9392C53.9706 20.0575 53.9442 20.1762 53.9056 20.2945C53.7223 20.8558 53.3032 21.2698 52.9093 21.2789C52.6635 21.2779 52.4668 21.1317 52.364 20.8597C52.2109 20.4547 52.4362 20.0565 52.952 19.8209C53.1599 19.7256 53.4023 19.6595 53.6656 19.6275C53.6432 19.2545 53.4748 18.7847 52.9121 18.3533C51.1323 16.9886 49.4266 18.5958 49.3549 18.665C49.2898 18.7275 49.1859 18.7259 49.1227 18.6604C49.0599 18.5953 49.0616 18.4914 49.1268 18.4286C49.1463 18.4093 51.1062 16.5547 53.112 18.0928C53.6515 18.5062 53.9571 19.0428 53.9943 19.6056C55.1021 19.5876 56.4588 20.1443 57.2367 21.5825C57.5556 22.1723 57.6395 22.654 57.6057 23.0364C58.8896 23.6201 60.2707 25.1987 59.6451 27.2006C59.3812 28.0454 59.0209 28.5406 58.6735 28.8292C59.5962 29.9754 60.3304 31.895 59.0727 33.3886C58.2135 34.4087 57.1487 34.9023 56.1974 35.0233C56.6617 35.8093 57.0807 37.1881 55.9954 38.9293C55.1174 40.3379 53.9206 40.4589 53.071 40.3133C52.5338 40.2209 52.0095 40.0018 51.5376 39.7179C51.5482 40.2786 51.4949 40.8569 51.3671 41.3873C51.0274 42.7962 50.236 43.6506 49.1385 43.7928C47.7417 43.9737 46.4345 43.5597 45.4777 42.9698C45.1888 44.3397 44.2624 45.8839 42.4235 46.4C40.287 47.0001 38.7307 45.6392 38.1607 45.0264C38.0674 44.9264 37.9793 44.8237 37.897 44.7201C37.8192 44.8658 37.7323 45.0104 37.6367 45.1518C37.2327 45.7515 36.1548 47.0242 34.3029 47.0245ZM30.5616 42.7558C30.549 42.7558 30.5367 42.7567 30.5252 42.7576C30.2063 42.7865 30.0059 43.0569 29.989 43.4806C29.9732 43.8761 30.1217 44.395 30.4862 44.9026C30.9324 44.1772 31.0385 43.3397 30.8298 42.9417C30.7476 42.7848 30.6435 42.7558 30.5616 42.7558ZM37.7493 42.63C37.7329 42.63 37.7159 42.6309 37.6976 42.6336C37.5809 42.6486 37.5098 42.7025 37.4737 42.8023C37.3854 43.0476 37.5068 43.5265 37.8351 44.0628C38.0537 43.48 38.0871 42.9698 37.9452 42.7401C37.8992 42.665 37.8374 42.63 37.7493 42.63ZM24.3527 41.6434C24.2604 41.6434 24.0798 41.822 23.9726 42.1998C23.9121 42.4128 23.8793 42.6822 23.8996 42.9814C24.0363 42.7572 24.1462 42.5401 24.2238 42.3515C24.4224 41.8692 24.3863 41.6712 24.3657 41.645C24.3617 41.644 24.3571 41.6434 24.3527 41.6434ZM44.6493 40.7611C44.6143 40.7611 44.5774 40.7656 44.5385 40.7751C44.3012 40.8339 44.2138 40.9579 44.2551 41.1776C44.3154 41.4984 44.6723 41.9692 45.2393 42.4037C45.2749 42.0101 45.2507 41.6509 45.1752 41.3656C45.1132 41.1297 44.9651 40.7611 44.6493 40.7611ZM20.4695 39.6318C20.4574 39.6318 20.4448 39.6325 20.4313 39.6337C20.1429 39.6606 19.7256 39.9759 19.4862 40.5253C19.459 40.5878 19.4321 40.6581 19.4076 40.7361C19.997 40.5728 20.484 40.2784 20.6446 39.9951C20.7252 39.8528 20.689 39.7694 20.6548 39.719C20.6393 39.6967 20.5951 39.6318 20.4695 39.6318ZM50.2535 37.152C50.1774 37.152 50.0988 37.1809 50.0151 37.2386C49.986 37.2584 49.8973 37.3197 49.9462 37.5417C50.0384 37.9606 50.512 38.5603 51.1652 39.0664C51.0606 38.1773 50.7887 37.45 50.4552 37.2209C50.3882 37.1751 50.3218 37.152 50.2535 37.152ZM17.3098 36.0664C17.3734 36.0901 17.4279 36.1068 17.4696 36.1181C17.9354 36.2445 18.3326 36.1601 18.4471 36.0072C18.4649 35.9834 18.519 35.9112 18.4242 35.7561C18.2762 35.5136 17.9567 35.6297 17.7793 35.7204C17.6295 35.797 17.4687 35.9147 17.3098 36.0664ZM54.2551 33.8592C54.2259 33.8592 54.2015 33.8631 54.1829 33.8704C54.1699 33.8756 54.1552 33.8814 54.1587 33.9378C54.1742 34.2011 54.4532 34.4539 54.887 34.5978C55.0952 34.667 55.3299 34.71 55.5817 34.7226C55.0638 34.1161 54.4949 33.8592 54.2551 33.8592ZM17.6534 30.9278C17.8279 31.0006 17.9752 31.034 18.0599 31.0484C18.4531 31.1161 18.8281 31.0387 18.9707 30.8601C19.0399 30.7736 19.0479 30.669 18.9948 30.5404C18.9345 30.3945 18.6318 30.4606 18.5399 30.4843C18.2829 30.5512 17.9707 30.7042 17.6534 30.9278ZM57.1109 28.0845C57.0451 28.0845 56.9909 28.1018 56.9517 28.1381C56.8463 28.2353 56.8195 28.3481 56.872 28.4739C56.9635 28.6929 57.2946 28.92 57.7071 28.895C57.8726 28.8873 58.0324 28.8437 58.1846 28.7661C58.137 28.7158 58.0887 28.6673 58.0404 28.6211C57.6865 28.2828 57.3331 28.0845 57.1109 28.0845ZM56.5127 23.1056C56.1571 23.1056 55.8384 23.2256 55.6987 23.5556C55.6234 23.7339 55.5696 23.9722 55.7418 24.0967C55.9602 24.2545 56.4693 24.1961 56.8515 23.8606C57.0454 23.6903 57.1738 23.4806 57.2363 23.2403C57.0071 23.1595 56.7515 23.1056 56.5127 23.1056ZM53.6488 19.9651C53.4324 19.9953 53.2415 20.0495 53.0892 20.119C52.9218 20.1958 52.5459 20.4097 52.6718 20.7431C52.7512 20.9531 52.8665 20.9545 52.9023 20.95C53.1174 20.9451 53.4432 20.6539 53.594 20.1922C53.6134 20.1325 53.6342 20.0556 53.6488 19.9651Z" fill="var(--fill-0, #241726)"/>
<g id="Group_13">
<path id="Vector_90" d="M34.019 69.939L39.5365 69.5112L39.354 71.0882L34.7146 71.4435L34.019 69.939Z" fill="var(--fill-0, white)"/>
<path id="Vector_91" d="M39.6549 69.3974C39.6209 69.3621 39.5721 69.3429 39.5239 69.3477L34.0065 69.7756C33.9529 69.7795 33.9046 69.8096 33.8776 69.856C33.8504 69.9026 33.8476 69.9593 33.8701 70.008L34.5657 71.5126C34.5926 71.571 34.651 71.6079 34.7148 71.6079C34.719 71.6079 34.7231 71.6079 34.7273 71.6076L35.7599 71.5284C35.9864 73.251 29.7398 73.5371 33.6995 74.3424C37.2984 75.0745 37.4059 72.409 37.3709 71.6879L37.5328 73.7446L38.834 73.3577L38.4826 71.3196L39.3667 71.2518C39.4451 71.246 39.5082 71.1851 39.5173 71.1071L39.6998 69.5301C39.7053 69.4815 39.6888 69.4326 39.6549 69.3974ZM39.2065 70.9349L34.8159 71.271L34.2673 70.0846L39.3506 69.6904L39.2065 70.9349Z" fill="var(--fill-0, #241726)"/>
</g>
<g id="Group_14">
<path id="Vector_92" d="M41.5299 69.053L47.0937 69.278L46.6765 70.9063L41.5299 71.0882V69.053Z" fill="var(--fill-0, white)"/>
<path id="Vector_93" d="M45.4906 71.1127L46.6823 71.0705C46.7551 71.068 46.8174 71.0176 46.8356 70.9471L47.2529 69.3188C47.2653 69.2707 47.2551 69.2198 47.2257 69.1799C47.196 69.1401 47.1501 69.116 47.1006 69.1138L41.5367 68.8887C41.496 68.8899 41.4487 68.9034 41.4164 68.9345C41.3842 68.9652 41.3659 69.0082 41.3659 69.0527V71.088C41.3659 71.1326 41.384 71.1752 41.416 71.206C41.4467 71.2359 41.4876 71.2523 41.5301 71.2523C41.532 71.2523 41.534 71.2523 41.5359 71.2523L42.7334 71.2099L42.3973 73.3574L43.6985 73.7443L43.8604 71.6876C43.8256 72.4087 43.9329 75.0741 47.5318 74.3421C51.5557 73.524 45.1196 73.1338 45.4906 71.1127ZM41.694 69.2238L46.8843 69.434L46.5479 70.7466L41.694 70.9182V69.2238Z" fill="var(--fill-0, #241726)"/>
</g>
</g>
</svg>
